<svg xmlns="http://www.w3.org/2000/svg" viewBox="0 0 430.98 204.69"><defs><style>.cls-1{fill:#dd9d30;}.cls-2{fill:#58473c;}.cls-3{fill:none;stroke:#58473c;stroke-linecap:round;stroke-linejoin:round;stroke-width:2px;}</style></defs><title>Recurso 2</title><g id="Capa_2" data-name="Capa 2"><g id="Capa_1-2" data-name="Capa 1"><path class="cls-1" d="M403,147c.81,4,1.54,7.94-.14,11.88-1.11-1.24-.68-2.77-.82-4.19-.09-.93.36-2.14-.72-2.63s-1.77.5-2.51,1.1c-.38.31-.7.68-1.07,1-4.4,4.11-4.73,5.62-2.32,10.7-.22,3.55.76,7.17-.59,10.65-1.54-1.6-.67-3.73-1.39-6.27-.73,3,.7,4.84,1.21,6.85-.26,3,.72,6.17-.64,9.14-1.63-1.65-.54-3.83-1.2-6a14.92,14.92,0,0,0-5.68,3.68c-1.12,1.61-1,3.67-2,5.34-1.3,1.88-3.18,1.65-5.07,1.42-18.69-2.28-37.42-4.26-56.1-6.62-3.24-.72-6.49-1.45-9.73-2.21-8.34-1.67-16.51-4.14-25-5-4,.08-8,.11-11.95,0-2.35,0-4.73-.31-7,.44-8.93,1.75-18,2.74-26.9,4.59a16.19,16.19,0,0,1-2.6.21c-6.07-.28-12-1.53-18.12-1.74-3.74-.94-7.56-1.49-11.33-2.31-2.7-.77-5.44-1.43-8.19-2-1.15-.16-2.29-.71-3.49-.17-3,1.53-5.8,3.39-9,4.47-.93.25-1.85.52-2.79.75-6,.86-11.89,1.7-17.84,2.44-4.34.28-8.55-1.07-12.87-1-1.83,2.21-3.47,4.64-6.34,5.69a7.43,7.43,0,0,1-2.7,1.64,3.44,3.44,0,0,1-1.56-.07c-1.41-.45-2.59-1.51-4.15-1.55-3.92,1.51-7.09,4.47-11.16,5.66-3.86,1.07-7.67,2.3-11.62,3a18.87,18.87,0,0,1-2.38.08,12,12,0,0,1-2.38-.29c-2.89-.66-5.93-.44-8.76-1.44-4.32-1-8.6-2.15-12.82-3.54-1.65-.54-3.32-1-5-.22-1.5.52-3,1.14-4.5,1.54-5.06.69-10.16.91-15.24,1.42a12.23,12.23,0,0,1-3.93,1.44c-3.93-1-4.8-4.29-5.24-7.63s-1-6.81-3-9.78c-3.67-2.11-7.87-2.76-11.74-4.31a67.28,67.28,0,0,1-7.18-3.78c-4.32-3.53-6.47-8.75-10-12.87a7.57,7.57,0,0,0-4.87-2.84A30.08,30.08,0,0,0,12,152.5a31.17,31.17,0,0,1-6.62-.37c-2.48-.52-3.38.56-3.37,2.93,0,1.81.32,3.73-1,5.31-2.17-4.93-.69-14.06,3-17.58,1.9-1.84,3.7-3.58,3.82-6.53.09-2.07,2.12-2.92,3.42-4.22,3.83-3.85,7.91-7.49,10.81-12.17.65-7.57-3.06-14.26-4.2-20.73.06,1.73,1.61,4.24-.41,6.61-1.4-4-.44-8.12-.55-12.17,0-1.35,1.17-1.33,2.17-1.49,7.43-1.26,14.88-.58,22.34-.35C49.8,92,58.18,95,66.73,91.68c4.87-1.87,8.35-4.15,9.47-9.78.83-4.16,3.26-7.77,8.18-8.69,1.68-.31,3.22-1.31,4.88-1.84,2.26-.72,3.06-2.06,3.57-4.51,1-4.72,2.38-9.62,8.66-10.13a2.2,2.2,0,0,0,2.28-2.07c1.52-.36,2.22-1.21,1.3-2.67a6.57,6.57,0,0,1-.87-4.85c-.83.76,1,2.71-1.17,3l0-12.83c2.54-5.93,2.35-6.63-3.33-11.75-1,2.12.57,4.76-1.32,6.63-1.5-2-.64-4.33-.7-6.49a7,7,0,0,0-1.51-4.81c.7-.93.38-2.2,1-3.14,1.54-2.56.53-4.44-1.49-6.1A17.81,17.81,0,0,1,93.11,9,7,7,0,0,0,91,7.28a9.23,9.23,0,0,0-2-.77c-.29-.08-.56-.17-.84-.27-.81-.33-1.78-.28-2.41-1,2.34-1.53,5.37-1.9,7.1-4.49.68-1,2-.74,3.14-.53a77.88,77.88,0,0,1,13.19,4c1.75.65,3,2,4.44,3.23,3.92,3.45,8.9,4.79,14,5.14,4.1.28,8.24,0,12.36.05,5.92,0,10.05,3.33,10.88,9.11.42,2.92,2.34,3,4.33,2.79A40.14,40.14,0,0,0,164,22.87a43.47,43.47,0,0,1,27.59-.95c14.33,4.18,29.3,5.35,44,8q18.9,3.42,38,5.08c5.08.45,10.19.74,15.29.88a16.28,16.28,0,0,1,7.52,1.89c8.76,4.76,17.68,9.29,25.77,15.15,4.48,3.24,9.65,4.53,14.68,6.26,25.33,8.7,50.71,17.29,76.06,26,2.65.9,5.21,1.6,7.92.06,2.09-1.18,3.86.13,4.82,1.67,4,6.49,6.53,13.42,4.81,21.25,0,.2-.33.35-.5.53-1.84-2.49-.27-5.22-.53-7.82,0-.49-.65.13-.18,0,.23-.07.32,0,.31.22a10.92,10.92,0,0,1-2.72,6.39c-7.34,9.31-14.33,18.88-21.56,28.26-1,1.29-1.71,2.76-2.69,4C400.59,142.31,400.49,144.68,403,147Z"/><path class="cls-2" d="M323.52,182.13c10.34,1.1,20.69,2.13,31,3.31,9.1,1,18.19,2.21,27.27,3.39a3,3,0,0,0,3.12-1.47,2.23,2.23,0,0,1,.46,2.73c-1,2.15,1.17.42,1.25,1.14-.25.56-.54,1.12-.75,1.7-2,5.46-2,5.56-7.58,4.91-18.54-2.18-37.07-4.44-55.6-6.66-3.23-1.13-2.44-3.84-2.15-6.09C320.75,183.66,320.81,181.36,323.52,182.13Z"/><path class="cls-2" d="M243.21,179.88c8.87-2.06,17.89-3.28,26.9-4.5,1.86-.74,2.86-.27,2.72,1.89-.07,1.1.07,2.2-.05,3.31.37-1.51-.65-3.23.79-4.56,1.51,1.29.33,3.07.89,4.54-.47-1.49.42-3.15-.63-4.57,2.23-1.17,2.58-1.12,2.64.77s.14,3.86,0,5.78a1,1,0,0,1-.83.72c-1.68,1.05-3.74.38-5.48,1.19-7.63,1.59-15.31,3-23.07,3.79-1.79.37-4,1-4.91-.94A6.52,6.52,0,0,1,243.21,179.88Z"/><path class="cls-2" d="M403,147c-3.88-2-4.29-3.08-2-6.53,7.41-11.23,16.09-21.52,24.09-32.32,1.77-2.4,3.58-4.72,4.54-7.67.75,2.74.4,5.48.33,8.21-1.51,6-5.91,10.28-9.43,15C414.73,131.51,408.83,139.21,403,147Z"/><path class="cls-2" d="M289.7,174.69a237,237,0,0,1,24.75,5.21,2.3,2.3,0,0,1,1.85,2.71,12.13,12.13,0,0,0,.35,4.4c.6,2.26-.38,2.69-2.32,2-4.61-.36-9-1.68-13.52-2.71a128.29,128.29,0,0,0-16.53-2.49c1.52-1.71,3.63-.85,5.22-1.2C288.32,179.91,288.05,177.3,289.7,174.69Z"/><path class="cls-2" d="M169.72,181.46l18.7-2.39c1.49,2.61.14,6,2.38,8.4-6.3,2.11-12.92,2.23-19.43,3-3.57.52-3.57.52-4.52-.95,2.78-1.75,1.38-4.8,2.21-7.17A4.06,4.06,0,0,1,169.72,181.46Z"/><path class="cls-2" d="M222.31,178.37c6.28-.26,12.41,1.34,18.65,1.57.34,1.23-.76,2-1,3-.65,2.49-.14,4.55,2,6.09-6.91.53-13.67-.85-20.47-1.68-2.22-2.76-1-5.86-.73-8.83C220.79,177.88,221.72,178.05,222.31,178.37Z"/><path class="cls-2" d="M1,160.37c0-3-1-6.53.32-8.69,1.56-2.56,5.2.2,7.93-.3a12.82,12.82,0,0,1,3,.09,3.94,3.94,0,0,0,2.17.34c4.47.1,6.32,3.08,4.63,7.37a2.11,2.11,0,0,1-2.2,1.6c-2.85-.13-5.71.31-8.55-.28Z"/><path class="cls-2" d="M44.53,172.38c4.37.75,8.38,2.67,12.62,3.86a21.87,21.87,0,0,1,1,5.74c.08,1.5.28,3.72-2.53,3.23-4.23-1.53-8.79-2.13-12.69-4.56-1.16-1.84-1.24-6.81-.08-8.18A1.16,1.16,0,0,1,44.53,172.38Z"/><path class="cls-2" d="M67.71,192.68c4-1.78,8.31-.42,12.4-1.35a22.17,22.17,0,0,1,4.09-.21,18.65,18.65,0,0,0,.14,9.12c-5.21,1.56-10.64.35-15.89,1.31C67.8,198.62,68.61,195.58,67.71,192.68Z"/><path class="cls-2" d="M119.52,195l11.94-3c1.87,2.5-.19,5.8,1.69,8.3-4.82,2.3-10,3.41-15.19,4.41C115.94,200.26,116.53,196.6,119.52,195Z"/><path class="cls-2" d="M88,189.69c1.12-1.23,2.57-.94,3.84-.58,4.76,1.35,9.49,2.84,14.22,4.28a6.28,6.28,0,0,0-2.06,5c0,1.22,0,2.53-1,3.45-4.64-.46-8.74-3.15-13.48-3.2C88.59,195.7,90.13,192.39,88,189.69Z"/><path class="cls-2" d="M289.7,174.69c0,1.12,0,2.25,0,3.37,0,5.38,0,5.38-5.43,5.71l-8.79,0a.58.58,0,0,1-.21-.57q.09-.3.18-.3h.74c.31-2.76-.56-5.63.77-8.29Z"/><path class="cls-2" d="M222.31,178.37c-2.19.61-1,2.44-1.13,3.64a29.22,29.22,0,0,0,.27,5.35,48.2,48.2,0,0,1-10.5-2.13c-2.67-2-2.63-6.94.06-9.1A46.88,46.88,0,0,1,222.31,178.37Z"/><path class="cls-2" d="M133.15,200.26a2.29,2.29,0,0,1-2.08-2.85c.86-1.88-.27-3.7.39-5.45l11.25-6c1.28,3.33,2.4,6.65-.79,9.62C139,197.14,136.46,199.39,133.15,200.26Z"/><path class="cls-2" d="M169.72,181.46l0,.69c-3.08,1.81-1.33,5.06-2.24,7.52.57.49,1.22.63,3.92.83-3.6,1.57-7.14,0-10.67-.33a11.52,11.52,0,0,0-5.86.48c1.5-3.21,1-6.67,1.31-10C160.75,179.72,165.16,181.82,169.72,181.46Z"/><path class="cls-2" d="M28,155.91c3.72,3.9,5.79,9.06,9.78,12.74-1.3,3.06-.36,6.13-.08,9.2-2.48-.69-2.95-3.17-4.26-4.87-2.2-2.84-4.18-5.83-6.26-8.76C26.49,161.36,25.77,158.49,28,155.91Z"/><path class="cls-2" d="M190.72,178.45l9-4.52c2.29,2,2.56,5.2.74,9l-8.1,3.83C190.17,185.13,189.5,181.72,190.72,178.45Z"/><path class="cls-2" d="M102.92,201.82c0-1.74.15-3.48,0-5.2-.2-2.37.61-3.55,3.1-3.23,3,.53,6.11.43,9,1.48-.53.8-1.5.72-2.22,1.13a3.64,3.64,0,0,0-.07,6c.82.53,2.32.29,2.19,1.91A39.78,39.78,0,0,1,102.92,201.82Z"/><path class="cls-2" d="M211,176.13c-1.16,3-1.5,6.06-.06,9.1-3.13-.22-6-1.47-9-2.27-.14-3-1.27-6.17.75-9A29.19,29.19,0,0,1,211,176.13Z"/><path class="cls-2" d="M88,189.69c.94.09,2.21-.16,2.18,1.32-.06,2.55.71,5.19-.71,7.61l-5.1,1.62c-2.11-1.88-2.17-6-.14-9.12Z"/><path class="cls-2" d="M386.48,182.2c1.79-2.3,4.62-3,7.51-5.29v8.28c-.74,2.67-3.12,3.43-5.24,4.5-1.95.8-2.45-.37-2.59-1.94A25.17,25.17,0,0,1,386.48,182.2Z"/><path class="cls-2" d="M98.41,32.23V23.6c7.37,5.11,9.86,9.68,4.65,13.75C101.63,35.54,99.24,34.59,98.41,32.23Z"/><path class="cls-2" d="M8.27,160.5c2.35,0,4.7-.23,7-.05,3.13.26,3.05-1.7,2.89-3.77s1-4.83-2.86-4.53c-1.05.08-2.25.32-3.11-.68a26.86,26.86,0,0,1,11.24,1.46c1.95,2.55,1.56,5.43,1.09,8.28-.17,1-1,1.31-1.95.77C17.9,160.73,13,161.66,8.27,160.5Z"/><path class="cls-2" d="M37.66,177.85c-2.23-3.76-2.2-7.17.08-9.2l6.79,3.73c-2.73,2.34-1.47,5.43-1.57,8.27C40.91,180.26,39.32,179,37.66,177.85Z"/><path class="cls-2" d="M55.65,185.21c2.2-.41,1.48-2.18,1.54-3.5.07-1.82,0-3.64,0-5.47a27.41,27.41,0,0,1,3.11,11.1c.13,3,1.38,5.63,4.49,6.86-.74,3,.17,6.23-1.6,9-2.9-2.85-2.9-6.69-3.59-10.32C59,190,58.49,187,55.65,185.21Z"/><path class="cls-2" d="M156.15,180.61a8.56,8.56,0,0,1-1.31,10c.67,3.14-1.77,3.56-3.8,4.32-2.41-1.89-2.63-4.15-.81-8.25C152.44,184.92,154.92,183.37,156.15,180.61Z"/><path class="cls-2" d="M314.33,189l1.74-.43c-2-2.61.46-6-1.62-8.64l9.07,2.23c-2.79,2.24-3.12,5.88-.81,9.05A32.51,32.51,0,0,1,314.33,189Z"/><path class="cls-2" d="M115,203.93c-1.77-1.31-5.24-.29-4.76-4.7.39-3.61,1.46-4.86,4.86-4.36l2.1.14c.88,2.55.27,5.17.37,7.76.06,1.33-.74,1.74-2,1.26l-.31,0Z"/><path class="cls-2" d="M17.4,105.75V98.3c2.46,6.37,6.17,12.36,5.33,19.56-.08.75-.05,1.5-.72,2C20.28,115.23,18.41,110.63,17.4,105.75Z"/><path class="cls-2" d="M63.15,203.22c.68-3-.76-6.34,1.6-9l3-1.52c3,2.72,1.38,5.84.74,8.87C66.75,202.31,65.47,204.4,63.15,203.22Z"/><path class="cls-2" d="M93.22,8.15c1.33,1.23,2.72,2.41,4,3.71,2.77,2.84,2.36,6.3-1,9.07l-3.82-4.46C91.09,13.54,92.12,10.84,93.22,8.15Z"/><path class="cls-2" d="M397,153.76c.51-.68.88-1.57,1.55-2,1.2-.74,2.51-2.16,3.89-1.49,1.08.52.4,2.22.45,3.4.07,1.71,0,3.43-.05,5.15l-4.53,2.27C396.08,159,396.22,156.43,397,153.76Z"/><path class="cls-2" d="M397,153.76q.66,3.68,1.31,7.35l-2.91,3.71C391.35,161.48,391.86,158,397,153.76Z"/><path class="cls-2" d="M22.6,162c2-.36,1.76-2.35,1.44-3.22-.72-2,.05-3.95-.58-5.83a6,6,0,0,1,4.5,3q-.41,4.16-.82,8.31Z"/><path class="cls-2" d="M241.92,189c-1.13-.4-3.06.41-3.12-1.64-.09-2.67-1-5.69,2.16-7.46l2.25-.06c-.75,1,0,2.14-.14,3.22-.72,4.9-.7,4.91,4.06,5.14A9.71,9.71,0,0,1,241.92,189Z"/><path class="cls-2" d="M141.92,195.54c1.66-3.09.52-6.42.79-9.62l3.75,2.22c1.5,3.06,1.71,6.11-.06,9.15C144.71,197.2,143.76,195.22,141.92,195.54Z"/><path class="cls-2" d="M88.71,5.92c.83,0,1.68-.06,2.27.71,1.86,2.33,1,4.91.5,7.36-.32,1.62-1.7,1.43-2.94,1l-.31,0L88,14.91C86.65,11.78,85.85,8.7,88.71,5.92Z"/><path class="cls-2" d="M190.72,178.45c.58,2.76,0,5.76,1.64,8.31a1.67,1.67,0,0,1-1.56.71c-2.64-.31-2.09-2.46-2.33-4.12a9.81,9.81,0,0,1-.05-4.28A2.71,2.71,0,0,1,190.72,178.45Z"/><path class="cls-2" d="M150.23,186.72c.38,2.74-.92,5.64.81,8.25l-2.26,2.25c-1.74,0-1.4-1.38-1.42-2.31,0-2.26-.77-4.6.6-6.73Z"/><path class="cls-2" d="M88.54,15c1.6,0,2.54-.59,2.44-2.43s0-4,0-5.95a2.4,2.4,0,0,1,2.24,1.52c.42,2.84-.89,5.52-.84,8.32Z"/><path class="cls-2" d="M386.48,182.2a9.31,9.31,0,0,1,.51,5.38c-.24,1.66.51,2,1.76,2.11l-2.11,1.54-2.33,1.61.62-5.48C385,185.52,385.12,183.67,386.48,182.2Z"/><path class="cls-2" d="M103,50.18c1.31-1.28.17-3.13,1.24-5.09.15,2.84.25,5.11,2.06,7a2.55,2.55,0,0,1-.24,3.43c-1.2,1.24-1.58-.42-2.32-.82C103.35,53.19,102.75,51.76,103,50.18Z"/><path class="cls-2" d="M202.71,173.93c-.76,3,.95,6.14-.75,9l-1.5,0c-.38-3,.82-6.1-.74-9C200.71,172.78,201.71,174,202.71,173.93Z"/><path class="cls-2" d="M394.63,176.05c-3.74-4.81-3.79-5.64.18-9v8.37A3,3,0,0,0,394.63,176.05Z"/><path class="cls-2" d="M148,188.18c.18,3-.48,6.12.82,9a1.82,1.82,0,0,1-2.38.07l.06-9.15Z"/><path class="cls-2" d="M88.71,5.92c-1.43,2.9-.46,6-.75,9l-1.49-.05c-.82-2.42-.22-4.9-.36-7.35-.12-2,1-2.31,2.6-1.59Z"/><path class="cls-2" d="M88.71,5.92c-1.74-.11-2.34.74-2.27,2.41.09,2.17,0,4.35,0,6.53-1.54-3.12-1-6.39-.72-9.64C86.74,5.45,87.92,4.86,88.71,5.92Z"/><path class="cls-2" d="M115.55,204c2.15-.42,1.61-2.12,1.64-3.51,0-1.83,0-3.67,0-5.51l2.36,0c-2.26,1.41-1.38,3.68-1.52,5.65-.09,1.34,0,2.69,0,4A3.36,3.36,0,0,1,115.55,204Z"/><path class="cls-2" d="M275.46,182.92l0,.87a14.56,14.56,0,0,1-5.29.66C271.73,183.14,273.79,183.7,275.46,182.92Z"/><path class="cls-2" d="M277,174.63c-.42,2.75.86,5.65-.77,8.29-1.1-2-.75-4.09-.6-6.19s-.82-1.17-1.64-.56c-1.61,1.47-.08,3.62-1.09,5.22-1.7-1.68,1.81-5.67-2.76-6C272.29,174.15,274.67,174.75,277,174.63Z"/><path class="cls-2" d="M274.18,176a7.7,7.7,0,0,1,0,5.38Z"/><path class="cls-2" d="M167.45,189.67c-.91-1.45-.62-3.07-.77-4.64-.22-2.35.88-3.11,3-2.88,0,1.82,0,3.65,0,5.47C169.77,189.25,168.9,189.75,167.45,189.67Z"/><path class="cls-3" d="M120.1,32.43c96.61,21.19,193.61,43.19,290.3,65"/><line class="cls-3" x1="133.27" y1="68.59" x2="179.3" y2="68.73"/><path class="cls-3" d="M131.65,53.78l-11.08.59"/><path class="cls-3" d="M101.84,73.26c9.87-.64,19.87,1.36,29.87,2.36,91,13,178,30,267,44.32"/><path class="cls-3" d="M79,98.23q60,7.76,120.11,15.39,60.3,7.72,120.56,15.72,33.72,4.5,67.44,9.19"/><path class="cls-3" d="M68.32,125.44c40.39,2.18,80.39,7.18,121.39,10.18,6,1,12,3,18,4,8,0,15,2,23,4,33,5,64,11,97,13,18,2,36,0,54-.43"/><path class="cls-3" d="M57.65,154.76c63.06,1.86,125.06,6.86,188.06,7.86,44,5,87,12,130.7,17.29"/><line class="cls-3" x1="72.65" y1="155.44" x2="68.35" y2="118.44"/><path class="cls-3" d="M145.44,159.85c-4.48-37-8.21-74.06-14.44-110.8-1.65-9.7-2.13-19.74-7.76-28.11"/><path class="cls-3" d="M171.41,160.64c1.59-19.35,5.51-37.64,10.73-57.24,1.31-6.53,2.62-13.07,1.31-18.29-1.31-14.37-6.53-27.44-11.25-41.35"/><path class="cls-3" d="M204.94,52.08c-6.35,36.45-15.3,72.38-22.69,108.62"/><path class="cls-3" d="M222.63,162.87q12.51-51,25.31-101.92"/><path class="cls-3" d="M269.56,65.71c-6.88,32.42-11.71,65.28-20.18,97.36"/><path class="cls-3" d="M267.56,166c8.65-31.23,19.1-62.59,26.19-94.83"/><line class="cls-3" x1="323.75" y1="77.93" x2="309.19" y2="105.34"/><path class="cls-3" d="M117.17,158.66c-3.46-30-6.46-61-10-91"/><path class="cls-3" d="M313.49,128.93c5.9,15.64,13.28,30.65,20.53,45.69"/><polyline class="cls-3" points="337.57 81.04 338.35 155.59 329.58 164.95"/><line class="cls-3" x1="185.11" y1="147.56" x2="225.64" y2="150.88"/><line class="cls-3" x1="190.09" y1="123.39" x2="231.07" y2="128.98"/></g></g></svg>