<svg xmlns="http://www.w3.org/2000/svg" viewBox="0 0 1122.92 624.86"><defs><style>.cls-1{fill:#c2d6ff;}.cls-2{fill:#fd5e5a;}.cls-3{fill:#6b4f72;}.cls-4{fill:#e3e4ff;}.cls-5{fill:#757ad8;}.cls-6{fill:#c5c6fe;}.cls-7{fill:#3a1a42;}.cls-8{fill:#432c47;}.cls-9{fill:#653870;}.cls-10{fill:#70497a;}.cls-11{fill:#f9b406;}.cls-12{fill:#e6f7f1;}.cls-13{fill:#fc7575;}.cls-14{fill:#5c2c55;}.cls-15{fill:#2846a6;}.cls-16{fill:#1b2b80;}.cls-17{fill:#c0b4fe;}.cls-18{fill:#ffcb57;}.cls-19{fill:#ea6868;}.cls-20{fill:#e24242;}.cls-21{fill:#1b1464;}.cls-22{fill:#ffda88;}.cls-23{fill:#f98a8a;}.cls-24{fill:#18287d;}.cls-25{fill:#0f1d5b;}.cls-26{fill:#2a8001;}.cls-27{fill:#38ab01;}.cls-28{fill:#3a9b07;}.cls-29{fill:#ff9739;}.cls-30{fill:#381a3f;}.cls-31{fill:#172866;}.cls-32{fill:#495599;}.cls-33{fill:#232028;}.cls-34{fill:#39223f;}.cls-35{fill:#603e6b;}.cls-36{fill:#6265a8;}.cls-37{fill:#b379c6;}.cls-38{fill:#e55555;}.cls-39{fill:#aaaee5;}.cls-40{fill:#d7d9ff;}.cls-41{fill:#b9bcfc;}.cls-42{fill:#552e5d;}.cls-43{fill:#006837;}.cls-44{fill:#4b2654;}.cls-45{fill:#4875d8;}.cls-46{fill:#6d91e0;}.cls-47{fill:#3658a2;}.cls-48{fill:#9e005d;}.cls-49{fill:#111f59;}.cls-50{fill:#2d1e66;}</style></defs><title>Recurso 1</title><g id="Capa_2" data-name="Capa 2"><g id="_Layer_" data-name="&lt;Layer&gt;"><path class="cls-1" d="M512.78,607.92c0,1.73,49.44,3.14,110.42,3.14s110.43-1.41,110.43-3.14-49.44-3.15-110.43-3.15S512.78,606.18,512.78,607.92Z"/><ellipse class="cls-1" cx="908.06" cy="588.9" rx="110.43" ry="3.15"/><path class="cls-2" d="M763.88,171c-10.16,7.51-14.75-38.7-18.88-46.41,1.42-.47-8.55,4-8.55,4,5.41,32.69,13.14,68.57,21.95,69.39,9.47.87,22.94-27.88,28.16-33.85s12.52-8.37,12.62-11.12c.16-3.94-.6-8.41-1.16-9.47-.25-.46-2.43,1.27-4.91,3.28.13-.84.26-1.56.32-1.85.21-.89,2.54-.4,2.67-2.4s-2.09-1.66-2.82-1.39S773.82,163.65,763.88,171Z"/><path class="cls-3" d="M622.14,140.64l19.26,14.2L699.77,99.9s-12.54-3.17-31,2.18S622.14,140.64,622.14,140.64Z"/><polygon class="cls-4" points="800.26 94.15 779.88 221.3 832 218.13 849.99 99.17 800.26 94.15"/><polygon class="cls-5" points="849.99 98.93 811.39 116.93 805.55 231.95 830.85 237.47 849.99 98.93"/><polygon class="cls-6" points="811.39 116.93 846.81 131.89 828.83 250.85 800.27 252.59 811.39 116.93"/><path d="M604.59,181.3s-8.37,19.68-2.22,29.31,18,9.09,18,9.09l10.28-40.45Z"/><path class="cls-3" d="M635.92,162.86s-15.91-3.56-22.48,0-15.92,22.94-15.92,22.94l27.33,11.42Z"/><path class="cls-7" d="M735.77,109s-29.84-8.73-40.58-8.1a24.86,24.86,0,0,1-3.11,0c-11.4-.62-25,1.34-32.52,10-17.37,20-42.07,55.26-51.46,78.32C593.9,224.07,626.2,239,645,240.52s56.34,6.85,62.3,5.13S735.77,109,735.77,109Z"/><path class="cls-8" d="M714.64,344.54,678.26,594l17.26-2.82,29.65-135.21s19.55-125.47,19.55-170.77Z"/><path class="cls-8" d="M623.4,608.93h30.21l-21-12.71,2.29-10.09c-4.81,0-6,3.18-10.82,3.18C622.67,596.73,623.4,608.93,623.4,608.93Z"/><path class="cls-8" d="M683.06,607.17h30.21l-21-12.72,2.29-10.08c-4.81,0-6,3.18-10.82,3.18C682.33,595,683.06,607.17,683.06,607.17Z"/><path class="cls-9" d="M743.51,248.41c-35.79.77-50.77,20.89-84,30.1l1.3,9.47-2.29,159.66s-34.37,112.52-41.28,149.89c0,0,19.64-1.17,18.51-1.17l57.8-133.49,26.1-121.95L741,293.51Z"/><polygon class="cls-10" points="719.64 340.92 688.38 461.13 635.75 596.36 693.54 462.87 719.64 340.92"/><path class="cls-11" d="M689.77,101.64s22.52-7.37,46.28,6.68c21.38,12.64,27.22,136,23.74,184.13-35,5.38-70.27,11.91-104.67,5.87l.62-2.19,13-77.95-3.13-45.27S649.05,111.82,689.77,101.64Z"/><path class="cls-12" d="M759.05,209.77c-1.23-19.22-3.17-38.44-5.91-55H667.23l-1.56,18.32,2.54,36.72C684.12,210.29,730,211.36,759.05,209.77Z"/><path class="cls-13" d="M726.67,85.94s-.57,20.67-2.39,25.65-16.53,8.44-22.88,1.22S701,57.15,701,57.15Z"/><path class="cls-2" d="M699.77,68.85c.61-6.86,1.2-11.7,1.2-11.7l25.7,28.79s-.12,4.32-.42,9.49c-3.53.45-7.84-.72-12.91-3.93C706.71,87.3,702.35,77.38,699.77,68.85Z"/><path class="cls-13" d="M734.56,26s6.36,3.63,9.18,16.2-.82,34.09-6.84,43.6c-3.58,5.65-10.32,6.78-20.24.5S701.24,62,699.53,54.37,706.9,17.5,734.56,26Z"/><path class="cls-14" d="M738.11,44.19s3,8,10.49,8,6.14-6.77,9.15-11.52,21-19.21.81-32S729.12,22.78,722,21s-19.85-9.44-24,1,2.27,12.39-2.55,17.06,5.71,21.9,7,25.21S710,70.29,708,61.6s-5.09-14.67-2.74-18.38,8-7.6,8.9-3.55c.42,1.86,6,7.79,9.9,4.14s6.9,1.71,10.05,2.63S738.11,44.19,738.11,44.19Z"/><path class="cls-13" d="M703.07,62.69c-.2-1.33,2.73-12.93-4.27-11.86S692.59,64,698,65.53,703.07,62.69,703.07,62.69Z"/><path class="cls-2" d="M702,58.3s-.58-5.35-3.44-4-1.68,8.48,1.2,9.43S702,58.3,702,58.3Z"/><path class="cls-15" d="M726.62,57.53c-.29,1.57.37,3,1.45,3.2s2.21-.91,2.5-2.48-.36-3-1.45-3.2S726.91,56,726.62,57.53Z"/><path class="cls-15" d="M738.13,59.64c-.29,1.57.36,3,1.45,3.2s2.21-.91,2.5-2.48-.36-3-1.45-3.2S738.42,58.07,738.13,59.64Z"/><path class="cls-15" d="M724.7,79.46a9.22,9.22,0,0,1-2.86-4.32.49.49,0,1,0-.91.36,9.71,9.71,0,0,0,3.43,4.4,10,10,0,0,0,5.16,1.93.06.06,0,0,0,0-.07A11.11,11.11,0,0,1,724.7,79.46Z"/><path class="cls-15" d="M730.39,48.09l.27,1.93a4.59,4.59,0,0,0-5.19.61S728.07,47.23,730.39,48.09Z"/><path class="cls-15" d="M743.15,54.55s-1.86-1.84-3.31-2.1l1-1.23S743.43,53,743.15,54.55Z"/><path class="cls-15" d="M733.93,75.77c0-.1,4.12-7.57,3.07-20.63a.49.49,0,0,0-1,.07c0,.12.87,11.57-2.59,19.29-2.75-1-3.67-1.92-4-1.12S730.42,74.13,733.93,75.77Z"/><path class="cls-3" d="M667.23,106.35s6.72,27.25,12.1,48.45-17.69,55.81-17.69,55.81v11.51s28.94-41.7,31.24-58-19.71-60.52-19.71-60.52Z"/><path class="cls-16" d="M785,30.24h-.09a.7.7,0,0,1-.6-.78c1.41-10.46-.94-18.37-7-23.49a21.09,21.09,0,0,0-9.46-4.58.71.71,0,0,1-.59-.79.69.69,0,0,1,.79-.58c.21,0,21.13,3.41,17.62,29.63A.71.71,0,0,1,785,30.24Z"/><polygon class="cls-17" points="807.42 126.87 791.27 254.03 832.56 250.85 846.81 131.89 807.42 126.87"/><path class="cls-13" d="M778.38,191.38c-6.81,1-31.1,11.87-55.88,19.23-25.33,7.52-36.79-38.69-47.08-46.4,3.56-.47-21.31,4-21.31,4,13.48,32.69,32.76,68.57,54.72,69.38,23.62.87,57.21-27.88,70.24-33.85S802.63,206,808.21,202s2.07-6.6,2.33-9.35c.39-3.93-1.5-8.4-2.9-9.46-.62-.47-6.06,1.27-12.24,3.27a19,19,0,0,1,.8-1.84c.52-.9,6.33-.41,6.66-2.4s-5.21-1.67-7-1.39-2.3,1.51-4.85,4.46C789.57,186.85,782.91,190.7,778.38,191.38Z"/><path class="cls-18" d="M670.18,110.32s-7.63-3.7-20.51,9.17,16,99.1,16,99.1l31.45-22.93Z"/><path class="cls-2" d="M792.62,141.81s4.2-3.12,5.66,0-7,3.31-7,3.31l1.32-3Z"/><path class="cls-13" d="M1098.28,88.75c-6.12,2.57-7.25,11.43-7.25,13.18s-9.65,4.07-9.74,4.09c-22,4-52.39,10.36-65,17.47-20.78,11.74-77.52,1.93-77.52,1.93l-9.3,29.49s49.26,7.19,93.21-5.11c28.66-8,55.49-25.92,70.71-37.42,4.23-1,11.78-3,12.94-4.15,1.62-1.62,5-3.71,5-8.54s-2.54-8.37-1.89-9,14.72-8.26,13.4-11.55C1122.11,77.31,1104.4,86.17,1098.28,88.75Z"/><path class="cls-19" d="M978.49,156.62a49,49,0,0,0-1.08-7.31c-2.37-8.76-9.17-16.33-19.25-21.37-11.23-1.11-19.37-2.52-19.37-2.52l-9.3,29.49A276.92,276.92,0,0,0,978.49,156.62Z"/><path class="cls-20" d="M948.38,292.9s26.11,97.5,29.3,123.6-25,150.24-25,150.24,3.47,9.33,8,13.86,12.52,3.19,13.86,6.92-34.1,0-40.23,0c0,0,4-11.72,6.66-20s-11.19-74-6.66-98.56,11.19-37,11.19-37L899.9,353.1Z"/><path class="cls-13" d="M954.68,310.55c-31.21-11.1-60.23-32.6-91.91-37.76a84.83,84.83,0,0,0-1.23,19c2.13,43.69,32.5,102.83,32.5,102.83S882.85,416,880.18,436.21s.54,107.63.54,117.22-10.66,32.49-10.66,32.49l18.12,14.39L891.37,587a102.82,102.82,0,0,1-2.13-20.51c0-11.19,36.58-122.27,36.58-122.27S940.55,335.9,954.68,310.55Z"/><path class="cls-9" d="M894.84,351.1l46.75,78.72-6,21.31,47.15,2.27V402.25c0-6.79-20.62-112.47-20.62-112.47l-42.51,5.38Z"/><path class="cls-21" d="M968.89,252.15c-22.9-15.69-51-21.81-79.25-31.06-20.64,21.37-31.53,50-28.2,84.59C864,332.32,879.31,392,879.31,392l-14.57,59.14,96.41,1.23L968.89,343A610.56,610.56,0,0,1,968.89,252.15Z"/><path class="cls-22" d="M969.16,149.31c-4-16-21.58-28-46.35-28s-35.63,14.25-35.63,14.25l2,83.25-20.37,23.07c28.24,9.25,69.28,18,100.07,10.24C972.21,210.44,971.61,159.11,969.16,149.31Z"/><path class="cls-6" d="M940.3,111.57A24.78,24.78,0,0,0,963.7,113c13.13-5.85,30-18.42,19.2-39.09S952.76,41.5,952.76,41.5Z"/><path class="cls-13" d="M946.59,95.74s-2.87,17.52,1,28.41-19.14,17.51-24.32,6.14,3.23-38.53,3.23-38.53Z"/><path class="cls-19" d="M926.47,91.76l20.12,4a95.2,95.2,0,0,0-1,10.35c-.52.18-1.06.34-1.6.47-6.86,1.7-14.5-1.33-19.81-6.22C925.38,95.29,926.47,91.76,926.47,91.76Z"/><path class="cls-23" d="M952.76,41.5s8.81,8.43,7.58,19.23.77,16.88.9,20.72-5.53,15.8-17.44,18.48-26.1-7.38-26.42-16.85.85-26,8.19-33.56S952.76,41.5,952.76,41.5Z"/><path class="cls-4" d="M952.76,41.5S927,60.56,921.26,71.72s9.34,26.64,8.21,32.82-22,20.48-30.38,12.93-2.54-19.91-2.54-19.91-15.44.49-14.79-11.83,10.78-29.23,24.85-37.41C936.8,30.77,952.76,41.5,952.76,41.5Z"/><path class="cls-6" d="M881.68,78.07c10.25-34.2,52.61-47.71,71.08-36.57-18.9-8.74-58.3,5.81-68.3,37.33-1.2,4.36-2.25,9.23,0,12.73s7.45,5,12,5.14l1.38,0c0,.62-6.94,12.4,1.19,20.73-5.66-4.53-6.1-12.46-3.81-19.06-4.69-.16-9.76-1.35-12.9-5.49S880.37,83,881.68,78.07Z"/><path class="cls-23" d="M925.68,68.6s-.47-6-6.6-4-3.18,11.66.88,12.68S925.68,68.6,925.68,68.6Z"/><path class="cls-24" d="M940.88,86.12c-4.74-.92-6.78-2.84-6.14-2.5-.39-.34-.93.22-.54.56.64.23,2.78,3.21,13.36,3.3a.39.39,0,1,0,0-.77A55.52,55.52,0,0,1,940.88,86.12Z"/><path class="cls-24" d="M941.74,89.58a.39.39,0,0,0,.4-.35.4.4,0,0,0-.37-.42c-.87-.06-3.31-.39-4.07-1.12s-2.24,1.41,4,1.89Z"/><path class="cls-24" d="M946.59,78.36c-.27-1.24-1.24-3.42-2.57-3.1A14.83,14.83,0,0,0,940.3,77c1.37-.19,2.61-.78,3.89-1C944.77,75.59,945.44,76.93,946.59,78.36Z"/><path class="cls-24" d="M952.24,72.53a1.88,1.88,0,1,0,1.85-1.6A1.74,1.74,0,0,0,952.24,72.53Z"/><path class="cls-24" d="M938.25,71.3a1.77,1.77,0,0,1-2.13,1.25,1.71,1.71,0,0,1-1.52-1.9,1.77,1.77,0,0,1,2.12-1.25A1.72,1.72,0,0,1,938.25,71.3Z"/><path class="cls-6" d="M957.55,64.18c2.71.43,2.4,2.17,2.4,2.17a20.41,20.41,0,0,1-2.67-1.12l-6.77,0C951.15,65,955,63.78,957.55,64.18Z"/><path class="cls-6" d="M936.26,61.6c-2.73-.24-2.88,1.52-2.88,1.52a20.77,20.77,0,0,0,2.88-.45l6.56,1.59C942.26,63.89,938.82,61.81,936.26,61.6Z"/><path class="cls-25" d="M891.37,587s-.43-1.91-.91-5a52.63,52.63,0,0,1-17.15-3.48c-1.82,4.37-3.25,7.45-3.25,7.45l18.12,14.39Z"/><path class="cls-25" d="M960.63,580.6l-.29-.31c-3.76,1.68-7.07,3.71-8.81,3.71s-8.18-2.81-14.19-5.59c-1.69,5-3.08,9.11-3.08,9.11,6.13,0,41.56,3.73,40.23,0S965.16,585.13,960.63,580.6Z"/><path class="cls-26" d="M903.08,378h-4.34c0-21.19-9.72-38.43-21.67-38.43S855.41,356.84,855.41,378h-4.34c0-24,11.42-42.77,26-42.77S903.08,354,903.08,378Z"/><path class="cls-13" d="M875.58,234.22a203.81,203.81,0,0,1,15.09-40c9.46-18.82,7.14-40.44-3.49-58.63-16.68,26.59-34.71,67.6-39.18,91.87-4.82,26.15,21,68.37,25.39,83.89s-6.35,25.85-2.84,32.74,6.85,3.4,9.81,4.16c4.22,1.09,9.4-.26,10.79-1.65s-4.19-26.21-4.19-34S868.57,262.66,875.58,234.22Z"/><polygon class="cls-27" points="833.99 370.27 914.11 370.48 921.55 439.65 819.54 439.65 833.99 370.27"/><polygon class="cls-26" points="844.44 370.27 847.4 439.65 819.54 439.65 833.99 370.27 844.44 370.27"/><polygon class="cls-28" points="855.41 378.03 861.92 431.09 918.36 432.53 870.55 425.3 855.41 378.03"/><path class="cls-19" d="M923.5,69.37s-1.77-5.06-5-3-.42,8.87,1.68,8.13S924.13,72.24,923.5,69.37Z"/><path class="cls-19" d="M1098.28,88.75s-1.41,3.06,2.69,4.63,8-1.18,8,1.38c0,5.26-17.07,8.94-17.92,6.37S1093.33,87.42,1098.28,88.75Z"/><path class="cls-1" d="M495.46,606.16c0,3.08-54.53,5.58-121.8,5.58s-121.8-2.5-121.8-5.58,54.53-5.57,121.8-5.57S495.46,603.08,495.46,606.16Z"/><path class="cls-25" d="M355.63,317.86,327.29,476.94l28.34,113.57,2.57,12H303.46S337,598,337,589s-46.37-108.2-46.37-110.78,14.91-151.73,14.91-151.73Z"/><path class="cls-16" d="M400.06,288.88l2.58,43.79L371.73,585.13l5.15,17.39H327.29s32.2-9.66,34.78-18.67-19.32-267.28-19.32-267.28Z"/><path class="cls-29" d="M336.47,110.79s-17.88,27.69-23.67,59.9-18.68,172.56-18.68,172.56,53.46-1,80.18-27.69,28.34,17.11,28.34,17.11S413,322.37,413,301.11,395,118.37,364.75,110.64,336.47,110.79,336.47,110.79Z"/><path class="cls-30" d="M354.75,86.14c.63-.65,5.11-26.19,5.11-26.19s2.61-19-1.88-21.16-15.79-10.51-24-8.92-13.13,5.32-13.76,6-4.1,11.1-4.1,11.1,1.85-3.67,5.37,7.68S354.75,86.14,354.75,86.14Z"/><path class="cls-13" d="M334,89.55c1.56,2.8,5.35,20.32.18,27.6-1.58,2.23,33.68,10.39,30.36-9.14S355,66,355,66Z"/><path class="cls-2" d="M336.71,108.59c10.63-1.86,20.73-16.77,21.83-28.79,0,0,0,0,0-.08l-.06-.26c-1.69-6.82-3.06-11.83-3.41-13.1a1,1,0,0,0,0-.15L355,66,334,89.55C335.11,91.52,337.3,100.74,336.71,108.59Z"/><path class="cls-13" d="M352.42,48c4.49,7.12,7.42,21.3,2.38,33.6s-13.78,20-21.88,16.11S316.2,60.27,319.59,50.41,345.56,37.18,352.42,48Z"/><path class="cls-9" d="M358.75,80.67s-.58-11.47,3-15.07,5.08-5.66,5-9.74,13.08-9.69,9.6-15.67-14.73-6.67-22.33-16.71-14.67-15-26.51-8.14-12,15.29-12,15.29-5.77.21-7.82,7.93,1.17,11.15,4,13.94c0,0-2.27-9.1.88-9.12s2.07,10.77,2.07,10.77a85.45,85.45,0,0,0,7.45-11.93c3.67-7.06,3.84.22,3.9,8.15s9.38-1.59,13.07-8.14,11.52-2.88,15.53,4.37S350.23,68.46,358.75,80.67Z"/><path class="cls-13" d="M352.44,60.74s2.91-8.93,5.9-6,3.09,13.7-1.81,14.87S352.44,60.74,352.44,60.74Z"/><path class="cls-2" d="M355.07,60.76s-1.07-4.57,1.62-3.56,1.72,8.93-.51,9.27S355.07,60.76,355.07,60.76Z"/><path class="cls-31" d="M329.39,64.15a30.56,30.56,0,0,0-.51,6.95c.24,5,1.39,7,1.48,7.27.52-.23,1.92-.77,3.73-1.71-1.24.23-2.45.53-3.65.87l.47.23C329.84,73.38,329.81,68.77,329.39,64.15Z"/><path class="cls-31" d="M341.87,82a.54.54,0,0,0-1-.35c-.08.22-1.88,5.36-7.16,5.4a.54.54,0,0,0-.54.54C333.16,89.14,339.81,87.74,341.87,82Z"/><path class="cls-15" d="M335.64,64c0,1.44.84,2.6,1.85,2.59s1.82-1.17,1.81-2.61-.84-2.6-1.85-2.59S335.63,62.57,335.64,64Z"/><path class="cls-15" d="M321.91,64.94c0,1.44.84,2.6,1.85,2.59s1.82-1.17,1.81-2.61-.84-2.6-1.85-2.59S321.9,63.51,321.91,64.94Z"/><path class="cls-31" d="M342.55,58.86s-2.78-3.32-6.34-3.3-1.94,2.8-1.11,2.8S342.54,58.12,342.55,58.86Z"/><path class="cls-31" d="M325.05,56.19s-3.8,2.13-4.19,4.24c0,0,4.21-1.3,4.78-2.52A1.22,1.22,0,0,0,325.05,56.19Z"/><path class="cls-13" d="M375.11,322.88l-1.45,20.37,16.18-3.69s-6.76-14.26-2.17-18.85c.06-.06-12.5,2-12.5,2S375.11,322.88,375.11,322.88Z"/><path class="cls-18" d="M366.48,118.05c-12.06,12.06-13.11,50,.9,74.66S392,232.91,392,249c0,15.58-15.76,69.94-16.84,73.63h13.58c4.82-5.72,19.79-59.71,27.42-81.41C423.89,219.28,383.28,101.25,366.48,118.05Z"/><path class="cls-32" d="M362.75,351.61c-1-1.25,1.39-2,2.94-3.47,10.67-8.18,20.13-8.23,28.76-10.74a1,1,0,0,1,1.16.72c.4,1.72-2.09,1.12-12.67,4-11.12,2.6-17.09,8.59-18.84,9.71A1.24,1.24,0,0,1,362.75,351.61Z"/><path class="cls-33" d="M364.21,106a20.31,20.31,0,0,1,.54,4.75c4.72,3.92,5.75,4.51-27,129.33l1.36.38q9.66-34.11,18.92-68.33C370.15,127,376.7,111.07,364.21,106Z"/><path class="cls-33" d="M336.67,109.11c-9.62,6.77-10.46,16.62-40.18,125.28l1.83.52c24.62-84.47,30-103.87,33.54-113C335,115,336.11,115.2,336.67,109.11Z"/><rect class="cls-30" x="292.49" y="227.82" width="49.13" height="36.25" rx="9.12"/><rect class="cls-34" x="292.49" y="227.82" width="35.69" height="36.25" rx="7.77"/><path class="cls-35" d="M305.42,234.28a6.59,6.59,0,0,1,4.94,3.56c1.24,2.46,3.73,20.88-5.52,20.4,0,0-10.57,1.09-15.85,1-.93,0-13.24,1.92-15.18,2.12-3.06.31-7.07,1.15-10,.47-2.49-.59-3-3-1.13-4.6.72-.61.78-1,.08-1.64a12.67,12.67,0,0,0-1.7-1.29,7.57,7.57,0,0,1-2.9-10.13c1.33-2.8,3.68-3.74,4.32-4.29,1.2-1,1.2-1.38,0-2.44-2.07-1.89.34-5,4.08-4.49C277.89,234.52,304.82,233.91,305.42,234.28Z"/><path class="cls-17" d="M281,247.68H281c.1-1.75.17-3.51.32-5.26a2.44,2.44,0,0,0-.45-1.65c-3.53-5.21-10.26-5.69-14.36-1a12.07,12.07,0,0,0,.14,15.58,8.57,8.57,0,0,0,7.85,3,8.9,8.9,0,0,0,6.21-4C281.13,253.69,281,253.52,281,247.68Z"/><path class="cls-30" d="M293.35,257c3.72-1.37,6.93-5.31,6.47-11.89-.26-3.63-2.77-7.06-7.33-8.39C301.61,240.45,301.45,252.2,293.35,257Z"/><path class="cls-30" d="M282,257.34c3.76-2.48,4.55-6.24,4.75-10.1a10.41,10.41,0,0,0-3.92-8.63A13.57,13.57,0,0,1,282,257.34Z"/><path d="M278.36,253.12a5.21,5.21,0,0,1-7.52.26,8.3,8.3,0,0,1-.08-11.55,5.33,5.33,0,0,1,8.33,1.1A8.39,8.39,0,0,1,278.36,253.12Z"/><path class="cls-36" d="M278.69,249.41a3.51,3.51,0,0,0-.33-4.19,3.3,3.3,0,0,0-3.48-1.24,3.5,3.5,0,0,0-2.79,2.84C271.22,250.58,276.62,253.05,278.69,249.41Z"/><path class="cls-37" d="M281.47,240.78c-.92-1.67-4.15-4.64-5.11-5.38-3.07-2.3-9.35-2.79-10.63-2.53,5.15.82,6.76,1.22,9.66,2.62a28.67,28.67,0,0,1,5.31,5.62c.21.39.16.47.14,1.07l0,1.28c-.19,10.95.05,10.29-.64,11.18-1.05,1.42-4,3.21-5.06,4.27a12,12,0,0,0-1.66,2.06,15.64,15.64,0,0,1,1.82-1.91c1.33-1.13,5.89-3.4,6-5.39.21-4.25.31-8.5.39-11.48A2.17,2.17,0,0,0,281.47,240.78Z"/><rect class="cls-22" x="315.12" y="231.66" width="9.13" height="3.48"/><ellipse class="cls-1" cx="121.8" cy="608.55" rx="121.8" ry="5.58"/><path class="cls-2" d="M121.8,606.16l44.44-.48s-28-6.28-30.92-16.42c-.59-2.1-.24-9.28.69-19.31a48,48,0,0,0-11,1.23c.69,11.64,1.13,19.53,1.13,19.53Z"/><path class="cls-38" d="M126.1,130.88s35.54,22.53,46.15,22.53,49.38-46.56,53.12-52.16l8,1.93S198.8,169,178.52,175.32s-54.85-21.91-54.85-21.91Z"/><polygon class="cls-6" points="197.56 322.88 172.25 265.47 215.34 232.01 236.27 283.21 197.56 322.88"/><polygon class="cls-39" points="172.25 265.47 190.98 265.47 243.51 228.87 207.88 237.66 172.25 265.47"/><polygon class="cls-40" points="202.32 188.27 190.98 265.47 243.51 228.87 250.96 170.14 202.32 188.27"/><polygon class="cls-41" points="187.96 170.14 202.32 188.27 250.96 170.14 232.88 153.1 187.96 170.14"/><polygon class="cls-6" points="206.32 108.83 187.96 170.14 232.88 153.1 248.34 113.19 206.32 108.83"/><path class="cls-42" d="M55.34,233.28s-4.1,16.91,0,26.09,26.81,5.79,26.81,5.79l-7.44-38.88Z"/><path class="cls-9" d="M70.8,208.17l-8.1,1.33a12.62,12.62,0,0,0-10.16,9.25l-5.89,22.5H70.8Z"/><path class="cls-43" d="M58.4,170.45s-2.33,76.12,13.85,92.3,38.29,4.83,38.29,4.83L106.35,157Z"/><path class="cls-44" d="M65.58,168.43c3,12.79,18.21,52.23,21.16,60.75,4.19,12.07-2.52,27-7.77,38.64,15,8.26,31.57-.24,31.57-.24L106.35,157Z"/><path class="cls-27" d="M99.82,120.39s-40.67,1.51-46.89,7.72-8.21,58.32-8.21,58.32h59.79S106.17,120.07,99.82,120.39Z"/><path class="cls-26" d="M99.82,120.39s-4.76,1.48-11.49,2.88C80,125,72.53,130,68.42,137.41a20.55,20.55,0,0,0-2.84,10.06c0,13.78-.72,32.69-1,39h39.9S106.17,120.07,99.82,120.39Z"/><path class="cls-13" d="M60.45,595.07,45.36,610.69l4,14.17,18.17-22.93s1.48-11.56,6.81-31.26a110.91,110.91,0,0,0-14.52-1.12C60.14,586.22,60.45,595.07,60.45,595.07Z"/><path class="cls-45" d="M151.75,450.15l10.52-136.84c-30.16,5.37-59.64-8-85.64-22.53a112.36,112.36,0,0,0-5.83,41.54l5.35,111.54A73.71,73.71,0,0,0,60.45,482c-1.54,14.8-2.42,59.43-1.91,88.84A159.75,159.75,0,0,1,76,572c10.67-39.47,25-101.9,25-113.17C101,441.93,113.77,341,113.77,341h8l4.35,106.75s-9.18,14-6.28,47.82c1.86,21.71.69,55.57,1.93,76.46A80.76,80.76,0,0,1,136,570C139.58,531.37,151.75,450.15,151.75,450.15Z"/><path class="cls-46" d="M97.49,301.52l-2.83-1.34-6.94,128-23,142.89,2.91.16L90.6,428.48Z"/><path class="cls-47" d="M76.63,290.78c-1.21,3.56-2.22,7.18-3.07,10.84C99.25,315,132,328.5,161.28,326.24l1-12.93C132.11,318.68,102.63,305.29,76.63,290.78Z"/><path class="cls-2" d="M184.43,234.61s.43-4,2.3-5.91,3.86-.95,6.4-1.21,2.17-3.75,3.38-3.75,1.63,3.81,0,5.44S184.43,234.61,184.43,234.61Z"/><path class="cls-48" d="M168.21,316.1l-4.39-21S147.2,177,136.58,151s-9.47-30.47-35.07-33.37c-10.59-1.2-23.87,6.35-28.67,10.8-6.81,6.31-2.53,15.9-.59,23.27,0,0,23.2,78.72,23.2,93.21,0,6.52-5.33,17.93-11.18,28.51-3.1,5.58-6.6,10.9-8.64,16.89C101.63,304.76,138.05,321.47,168.21,316.1Z"/><path class="cls-24" d="M136.58,52.83c-.52-.51,2.53-4.79,2.53-11.66s-4.52-13.09-12.51-13.09-3.51,3.51-10.86,5.43-5.85-5.11-11.23-1.44-1.23,7-5.86,8.38-3.83-6.3-7.66-4.07-8.47,7.07-2.4,10.32,5.34,7.73,3.55,12,3.8,12.3,8.43,7.67c0,0,1.12.16.32,3.51s3.32,5,3.62,5,1.17.16,8.84-4.79,15.17,3.67,17.88-6.71S136.58,52.83,136.58,52.83Z"/><path class="cls-11" d="M135.11,50.6c1.72.18,6.11,3.27,3.23,6.14s-7.15,2-10,2.19-4.43.46-5.55.46,2.55-3.52,4.31-5.28S132.93,50.36,135.11,50.6Z"/><path class="cls-24" d="M136.58,51.56s-.08-1.28,5.36-4.48,11.63,2.24,11.63,2.24l1.3-4.15s-5-6.23-11.5-1.6S136.58,51.56,136.58,51.56Z"/><path class="cls-13" d="M122.77,115.28s-5.75,11.82-4,20.13c0,0-3.29,3.54-13.63-2.78S95.46,119,95.46,119s10.94-17.7,13.65-25.39a52,52,0,0,1,6.31-12Z"/><path class="cls-2" d="M115.42,81.58l7.35,33.7s-.52,1.06-1.19,2.77C109,115.29,115.42,81.58,115.42,81.58Z"/><path class="cls-13" d="M153,73.91c.29.92,1.59,12.14-.8,16.45s-9.11,6.08-9.11,7.83-.4,6.63.88,10c0,0-1,1-3.91,0a5.3,5.3,0,0,0-1.2,2.64c0,1.2-.43,1.5-.88,1.6a9.56,9.56,0,0,1-1.44,0l-1.91.8s.16.39-.64,1.19-2.32,0-2.32,0-1-.16-2.31,1.2-2.88,3.67-8.07,0c-3.89-2.75-12.26-18.17-10.46-25.87,1.49-6.38,11.81-19.08,15.17-20C130.67,68.32,151.12,68.24,153,73.91Z"/><path class="cls-15" d="M157.75,68.4s6.07,5.51,7.42,13.18.56,16.29-7.9,18.85-10.94-1.68-10.94-1.68,6.47-.32,5.83-2.47-4.43-1.68-4.43-1.68,2.63-3.08,1.39-4.31-8.86-.72-8.86-.72,4.63-6.63,1.28-6.63-5.93,1.12-11.39,1.12-11.77,3-11.77,8.22,2.87,5.83,2.87,5.83-3.43,1.68-5.35-1.2a6.87,6.87,0,0,1-.56-6.07l-2,4.72s-2.6-2.94-.88-7.75,13.81-9.83,13-12.62S113.19,83.94,109.71,92c0,0,2.63-8.51-.6-11.75S101.21,74,108,65.37s23.55-4.55,30.34-8.63S160.3,58.26,157.75,68.4Z"/><path class="cls-13" d="M123.26,79.15s5.58-5,1.11-6.78-11.13,6.92-7.35,8.41C120.27,82.06,123.26,79.15,123.26,79.15Z"/><path class="cls-2" d="M123.23,78.33s1.24-2.92-.46-3.46S116.7,78,117.66,79.5,121.88,80.13,123.23,78.33Z"/><path class="cls-9" d="M99.82,87.64a.63.63,0,0,1-.27-.06c-19.72-9.7-20-31.95-20-32.18a.63.63,0,0,1,.63-.62h0a.63.63,0,0,1,.63.62c0,.22.24,21.7,19.24,31.05a.63.63,0,0,1,.29.84A.64.64,0,0,1,99.82,87.64Z"/><path class="cls-15" d="M141.25,98.35l1.51-1a2,2,0,0,1-.83,1.39,1.73,1.73,0,0,1-.33.17A2.11,2.11,0,0,0,141.25,98.35Z"/><path class="cls-49" d="M138.46,95.2c3.85.8,6.16,5.13,8.07,4.62-.79.16-2.52-2-3.59-2.92A6.7,6.7,0,0,0,138.46,95.2Z"/><path class="cls-50" d="M55.89,599.79s-3.77,9.61-.87,9.61S65.91,604,65.91,604L49.39,624.86l-4-14.17Z"/><path class="cls-50" d="M123.59,599.79l-1.79,6.37,44.44-.48-18-5.89S128.4,602.58,123.59,599.79Z"/><path class="cls-26" d="M76.92,124.76l-4.51.81A31.74,31.74,0,0,1,89,143c5.31,13.2,5,77.32,3,81.75a31,31,0,0,0-2.47,7.45l1.93,9.09s12.45-10.43,11-52.68C101.88,175.17,95.42,124.1,76.92,124.76Z"/><path class="cls-13" d="M72.84,128.38s-11.22,3.89,2.69,51.52c13.73,47,44.58,70.1,64.93,69.1s38.44-9.23,44-5.53,18.69,2,20.68-12.72c.17-1.29,1.26-3.92-.22-6.64s-14.17,7.42-21.46,7.85-36.92-1.29-51.47-6.45c-13.85-4.91-30.57-20.67-33.57-37.49S84.49,124.12,72.84,128.38Z"/><path class="cls-2" d="M217.28,107.46s-.91,4.83.87,5.43c.52.17.76-2,1.66-3.1,2.26-2.77,5.33-8.05,4.84-8.54C224,100.55,218.43,106.31,217.28,107.46Z"/><path class="cls-13" d="M224.29,100.89s-5.32,15.26-2.66,14.42,3.78-5.44,4.83-6.48-2.06,5.94-.49,6.51,4-4.52,4.95-7c0,0-2.65,5.69-1.81,6.53s3.62-5,5.08-6.5-.49-5.81-1.82-5.81S225.22,100,224.29,100.89Z"/></g></g></svg>