<svg xmlns="http://www.w3.org/2000/svg" viewBox="0 0 325.94 336.88"><defs><style>.cls-1{fill:#ffb332;}.cls-2{fill:#00a96a;}.cls-3{fill:#242238;}.cls-4{fill:#a81217;}.cls-5{fill:#fff;}.cls-6{fill:#4872b8;}.cls-7{fill:#e8967c;}.cls-8{fill:#ecb28a;}.cls-9{fill:#e23c5a;}.cls-10{fill:#f8324d;}.cls-11{fill:#ddd;}.cls-12{fill:#cc2a4d;}.cls-13{fill:#008c54;}.cls-14{fill:#ececec;}.cls-15{opacity:0.1;}.cls-16{fill:#571c1b;}.cls-17{fill:#763633;}.cls-18{fill:#305998;}.cls-19{fill:#210c3e;}.cls-20{fill:#710f12;}.cls-21{fill:#568cc7;}</style></defs><title>Recurso 1</title><g id="Capa_2" data-name="Capa 2"><g id="OBJECTS"><path class="cls-1" d="M76.08,2.45a74.13,74.13,0,0,0-40.86,11.1,75.19,75.19,0,0,0-31,38.8c-21.09,60.66,44.91,114.31,22,174-4.89,12.73-11.29,25.24-12.34,38.84-.86,11.29,2.07,22.59,6.51,33,4.13,9.71,9.78,19.08,18.17,25.49,10.9,8.33,25.11,10.76,38.76,12.11,24.82,2.45,51.53,1.74,72.35-12,12.6-8.3,22.55-21.07,36.86-25.82,15.76-5.24,32.78.48,48.75,5,17.08,4.87,34.83,8.46,52.54,7,14.2-1.16,28-6.35,34.57-20,5.36-11.2,4.07-24.57,0-36.28-3.4-9.68-8.57-18.63-12.66-28s-7.12-19.65-5.86-29.82c1-8.18,4.71-15.73,7.18-23.59,4.76-15.14,4.91-31.44,2.42-47.11-3.88-24.42-12.38-49.69-26.68-70-21.08-30-58-45.08-94-37.43-13.83,2.93-27.21,8.94-41.33,8.74C133.13,26.24,119.86,15.41,104,8.54A74.62,74.62,0,0,0,76.08,2.45Z"/><path class="cls-2" d="M220.29,80.58c-1.88,3.8-23.12,8.46-35.68,9.83-5.47.6-9.1-1.28-11.11-4.12a11.42,11.42,0,0,1-.08-12.55c1.9-2.81,6.5-5,11-6.57a82.22,82.22,0,0,1,11.06-2.91C220.09,62,222.17,76.79,220.29,80.58Z"/><path class="cls-3" d="M179.16,158.92c.7,11.47,1.64,20.87,3,29.62,0,0,39.43,8.14,53.21-2.06l-2.52-28.6S191.9,154.56,179.16,158.92Z"/><path class="cls-3" d="M207.27,188.79l-25.1-.25c3.62,33.62,10.5,98.41,12,111.25h10.52c0-10-.7-32-.4-41.38.4-12.37-.39-24.65-.39-24.65Z"/><path class="cls-4" d="M210.7,313.87c-.25,5-15.89,3.28-18.39,1.78a3.54,3.54,0,0,1-1.44-3,24,24,0,0,1,1.2-7.08c1-3.52.86-3.46,1.56-5.86,0,0-.18-3.92,4.94-5.41s7,8.25,7.88,10.12c.8,1.72,3.91,4.07,4.23,8.3A9.52,9.52,0,0,1,210.7,313.87Z"/><path class="cls-5" d="M195.79,302.82l-.41-.63c.19-.12,4.71-3,8.64-1.29l-.3.68C200.16,300,195.83,302.79,195.79,302.82Z"/><path class="cls-5" d="M196.23,307.17l-.4-.63c.19-.12,4.71-3,8.64-1.29l-.3.68C200.6,304.37,196.28,307.14,196.23,307.17Z"/><path class="cls-5" d="M196,305l-.41-.63c.19-.13,4.71-3,8.65-1.3l-.3.69C200.38,302.19,196.06,305,196,305Z"/><path class="cls-5" d="M196.38,302.62a.84.84,0,1,1-.84-.84A.84.84,0,0,1,196.38,302.62Z"/><path class="cls-5" d="M196.43,304.69a.85.85,0,1,1-.85-.85A.85.85,0,0,1,196.43,304.69Z"/><path class="cls-5" d="M196.87,306.75a.84.84,0,1,1-.84-.85A.84.84,0,0,1,196.87,306.75Z"/><path class="cls-5" d="M205.16,305.53a.84.84,0,1,1-.84-.84A.84.84,0,0,1,205.16,305.53Z"/><path class="cls-5" d="M204.94,303.28a.85.85,0,1,1-.84-.84A.84.84,0,0,1,204.94,303.28Z"/><path class="cls-5" d="M204.72,301a.85.85,0,1,1-.85-.84A.84.84,0,0,1,204.72,301Z"/><path class="cls-5" d="M210.7,313.87c-.25,5-15.89,3.28-18.39,1.78a3.54,3.54,0,0,1-1.44-3,18.26,18.26,0,0,0,8.86,2.18c5.3.1,9.13-1,11-2.11A9.52,9.52,0,0,1,210.7,313.87Z"/><path class="cls-5" d="M200.78,295.79a8.32,8.32,0,0,0-4.4.88l.23,1.58a17.54,17.54,0,0,1,4.71-.71A3.75,3.75,0,0,0,200.78,295.79Z"/><path class="cls-3" d="M212.67,185.45l11.25,54.84c2.1,16.32,5.78,25,5.78,25l7.8,34.5h10.92L234.91,182.38Z"/><path class="cls-4" d="M267.14,314.79H238.76a2.63,2.63,0,0,1-2.6-2.28,2.53,2.53,0,0,1,0-.55l.74-14.95s1.59-.5,3.25-.89a2.88,2.88,0,0,0,2.1-1.91l.06-.22c.65-2.87,4.79-3.78,5.55-1,.1.37.19.72.26,1.06a2.21,2.21,0,0,1,.05.25c.12.6.21,1.16.27,1.64a0,0,0,0,1,0,0,16.94,16.94,0,0,1,.14,2c.38.47.74.94,1.09,1.41.18.22.35.45.52.68.38.48.74,1,1.1,1.41l.49.62c.39.49.78,1,1.17,1.4.18.2.35.39.53.57a8.14,8.14,0,0,0,4.68,2.83c3.08.43,8.11.77,10.53,5.28a1.23,1.23,0,0,1,.13.29A1.76,1.76,0,0,1,267.14,314.79Z"/><path class="cls-5" d="M267.14,314.78H238.76a2.62,2.62,0,0,1-2.6-2.27h32.65A1.75,1.75,0,0,1,267.14,314.78Z"/><path class="cls-5" d="M250.18,300.11a4.87,4.87,0,0,1-2.34,1.6c-.23.1-.48.19-.76.28l-.24-.74.73-.27c1.55-.62,2-1.24,2.09-1.55C249.84,299.65,250,299.88,250.18,300.11Z"/><circle class="cls-5" cx="246.96" cy="301.62" r="0.88"/><path class="cls-5" d="M251.77,302.14a5.67,5.67,0,0,1-1.94,1.23q-.41.17-.9.33l-.25-.74c.31-.1.59-.21.83-.31a4.47,4.47,0,0,0,1.77-1.13Z"/><circle class="cls-5" cx="248.95" cy="303.33" r="0.88"/><path class="cls-5" d="M253.47,304.11a5.44,5.44,0,0,1-1.88,1.17c-.28.12-.58.24-.91.35l-.25-.75a8.85,8.85,0,0,0,.84-.31,4.91,4.91,0,0,0,1.67-1C253.12,303.74,253.29,303.93,253.47,304.11Z"/><circle class="cls-5" cx="250.71" cy="305.25" r="0.88"/><path class="cls-5" d="M248.42,296a19.83,19.83,0,0,0-2.52.14v-1.42a6.42,6.42,0,0,1,2.24-.36C248.27,294.92,248.36,295.48,248.42,296Z"/><path class="cls-2" d="M194.87,74.51s-13.08,4.34-18.84,14c-4.41,7.42,2.22,42.37,1.56,64.76a69.56,69.56,0,0,0,3.09,24c1,3.75,20.88,2.78,34.11,3.23,15.76.52,20.09-5.16,20.59-8.76s-4.33-23.1-4.83-38.37,6.12-53.65-19.88-59.67C210.67,73.74,207.06,78.48,194.87,74.51Z"/><path class="cls-6" d="M183,28.11s-7.79,3-15.08,5.26c-9.08,2.79,3.86,4.26,18.55-.65C186.47,32.72,189.44,27.61,183,28.11Z"/><path class="cls-3" d="M181.5,28s-3.84,9.45.87,15.3c3,3.66,17.44,1.44,27.82-.72a7.54,7.54,0,0,0,3-13.38C207.34,24.76,197.5,21.93,181.5,28Z"/><path class="cls-7" d="M215.16,40.83s3.71-4.24,6.74-.56c2.66,3.24,1,11.81-5.48,11.57Z"/><path class="cls-8" d="M210.57,75.21c-3.28,3.87-9,3.38-15.7-.7l-.73-9.64-.54-7.09,17.87,3.47-.72,11.15Z"/><path class="cls-7" d="M210.67,73.74c-6.08,0-12.93-4-16.37-6.75l-.7-9.21,17.87,3.47Z"/><path class="cls-8" d="M202.9,67.94c-15.48-3.75-18.29-25.23-18.29-25.23a27.17,27.17,0,0,1,.49-5.36c.83-4.5,3.08-10.57,9.05-13,8.44-3.41,21.19-2.1,25,10a25,25,0,0,1,1,5.17C221.27,51.86,216.28,71.19,202.9,67.94Z"/><path class="cls-3" d="M202.21,42.67A2,2,0,1,1,200,41,2,2,0,0,1,202.21,42.67Z"/><path class="cls-3" d="M214.82,42.41a2,2,0,1,1-2.25-1.68A2,2,0,0,1,214.82,42.41Z"/><path class="cls-3" d="M194.52,40.16a51.22,51.22,0,0,1,7.61-3.64s-.78-2.46-1.54-2.46c-2.85,0-8.38,4.17-8.38,4.17Z"/><path class="cls-3" d="M217.32,37.93A48.68,48.68,0,0,0,209.51,36a6.24,6.24,0,0,1,.73-2.46c.9-1,7.72,2.18,7.72,2.18Z"/><path class="cls-7" d="M205.62,51.53a3.57,3.57,0,0,1-2.39-1.91.45.45,0,0,1,.17-.62.45.45,0,0,1,.61.17,2.38,2.38,0,0,0,2.5,1.47,1.82,1.82,0,0,0,1.36-1.72c.22-3.58-2-9.21-2.06-9.27a.45.45,0,1,1,.84-.34c.09.24,2.35,5.88,2.12,9.67a2.72,2.72,0,0,1-2.06,2.54A2.65,2.65,0,0,1,205.62,51.53Z"/><path class="cls-8" d="M187.27,42s-5.55-3-7.33,2c-1.56,4.45,3.49,12.86,10.25,10.1Z"/><path class="cls-3" d="M212.1,58.39A5.81,5.81,0,0,1,211,60a6,6,0,0,1-4.59,1.73,5.86,5.86,0,0,1-4.37-2.26A12.53,12.53,0,0,1,200.39,57a12.92,12.92,0,0,1-.7-1.61s8.86-.27,13.11-.9h0a9.36,9.36,0,0,1-.09,1.75A8,8,0,0,1,212.1,58.39Z"/><path class="cls-5" d="M212.71,56.21c-4,.78-10.59.72-12.32.76a12.92,12.92,0,0,1-.7-1.61s8.86-.27,13.11-.9h0A9.36,9.36,0,0,1,212.71,56.21Z"/><path class="cls-7" d="M187.85,51.28a9.54,9.54,0,0,0-5.48-6.65s4.24,4,3.9,6.7Z"/><path class="cls-9" d="M211,60a6,6,0,0,1-4.59,1.73,5.86,5.86,0,0,1-4.37-2.26,5.58,5.58,0,0,1,4.54-.26,3.8,3.8,0,0,1,2.27-.33A2.91,2.91,0,0,1,211,60Z"/><path class="cls-7" d="M205.64,64.37a7.43,7.43,0,0,1-2.59-1,.45.45,0,1,1,.51-.75,6,6,0,0,0,5.85.37.45.45,0,0,1,.61.19.46.46,0,0,1-.19.61A6.24,6.24,0,0,1,205.64,64.37Z"/><path class="cls-3" d="M184.61,41.16a5.13,5.13,0,0,1,4,3.12s1.89,1.44,2.26-1.56-1.57-6.7-1.57-6.7,2.34-.65,2.92-4.51c0,0,3.47-.48,4.32-5.31,0,0,7.71,2.53,14.29.84a7.14,7.14,0,0,0,3.52,3.5s1,3.2,3.62,3.68c0,0,1.18.91,1.67,4.84,0,0,.55.95,1.33-1.16s-3.21-10.82-6.62-13.31S199,19.93,195.56,22.18,181.78,27.65,184.61,41.16Z"/><path class="cls-10" d="M202.45,12.16h-.07l-.86,0h0a44.08,44.08,0,0,0-5.82.29c-.82.1-1.59.23-2.34.39-8.92,1.9-13.06,8-13.34,21.25.26-.33,3.49-1,8.09-1.59l.78-.11c3.2-.43,7-.87,10.84-1.24,4.22-.4,8.55-.71,12.34-.83,2.51-.08,4.78-.08,6.62,0C218.69,30.34,216.19,12.54,202.45,12.16ZM198.86,28.1a4.89,4.89,0,0,1,4-4.06c3.65-.77,7.32.18,8.7,3.06Z"/><path class="cls-5" d="M212.1,30.3h0c-3.79.12-8.12.43-12.34.83a2.61,2.61,0,0,1-.87-3l12.69-1C212.36,27.38,212.86,29.23,212.1,30.3Z"/><path class="cls-11" d="M201.45,29.43a.56.56,0,1,1-.56-.56A.56.56,0,0,1,201.45,29.43Z"/><path class="cls-11" d="M204.68,29.18a.57.57,0,1,1-.56-.56A.56.56,0,0,1,204.68,29.18Z"/><path class="cls-11" d="M207.91,28.93a.57.57,0,0,1-.57.56.57.57,0,0,1-.56-.57.56.56,0,0,1,.56-.56A.57.57,0,0,1,207.91,28.93Z"/><path class="cls-11" d="M211.13,28.67a.56.56,0,1,1-.56-.56A.56.56,0,0,1,211.13,28.67Z"/><path class="cls-12" d="M188.22,22.23a22.13,22.13,0,0,0,.67,10.14l-.78.11a22.82,22.82,0,0,1-.63-10.36,12.76,12.76,0,0,1,5.88-9.3c.75-.16,1.52-.29,2.34-.39A11.93,11.93,0,0,0,188.22,22.23Z"/><path class="cls-12" d="M205.64,23.79h-.75a25.36,25.36,0,0,0-3.37-11.65l.86,0A25.93,25.93,0,0,1,205.64,23.79Z"/><path class="cls-13" d="M191.26,153.27a68.83,68.83,0,0,1,1.51,15.39,2.52,2.52,0,0,0,2.47,2.58c6.77.15,24.94.27,34.19-2.13a2.51,2.51,0,0,0,1.86-2.7,152.29,152.29,0,0,0-2.54-16.61,2.52,2.52,0,0,0-2.25-1.94c-5.36-.45-21.62-1.37-33.53,2.5A2.53,2.53,0,0,0,191.26,153.27Z"/><path class="cls-5" d="M202.85,120.12h0a.75.75,0,0,1-.74-.76,135,135,0,0,0-6.61-41.84.75.75,0,0,1,.46-1,.77.77,0,0,1,1,.46,136.52,136.52,0,0,1,6.69,42.36A.75.75,0,0,1,202.85,120.12Z"/><path class="cls-5" d="M218.48,120.12h0a.75.75,0,0,1-.74-.76,135,135,0,0,0-6.61-41.84.75.75,0,0,1,.46-1,.76.76,0,0,1,.95.46,136.69,136.69,0,0,1,6.7,42.36A.75.75,0,0,1,218.48,120.12Z"/><path class="cls-13" d="M220.82,78.9s28.42,17.88,35.1,39l-8.62,11.58-17-27.65C229,96.29,226.94,86,220.82,78.9Z"/><path class="cls-2" d="M182.11,141.9c-16.44,4.25-35.19-7.34-27.26-27.05C160.67,100.38,176,88.54,176,88.54c5.93,11.26,1.63,26.31,1.63,26.31-2,1.2-3.66,3.41-7.87,7.16-.43.38-.88.78-1.36,1.19,1.75,5.51,11.26,4.13,11.26,4.13Z"/><path class="cls-13" d="M169.79,122c-.43.38-.88.78-1.36,1.19a32,32,0,0,0-6.41-1.75,19.47,19.47,0,0,1,5.52.29,21,21,0,0,0-2.31-2.36C165.34,119.42,168.66,120.58,169.79,122Z"/><path class="cls-7" d="M256.2,116s.89-2.13,2.29-.47.23,6.94.23,6.94S254.64,124.28,256.2,116Z"/><path class="cls-7" d="M181.68,122s-1.19-2-2.34-.13.78,6.9.78,6.9S184.43,130,181.68,122Z"/><path class="cls-14" d="M259.74,155c-12.61-1.1-25.21,1.54-37.8,7.6-11.67-2.06-22.34-3.83-37.95-2.08.66-21.42-4-43.55-10.33-65.9C189.23,93,204,93.47,217.2,97.66c12.76-6.31,27.52-8.73,43.2-9.38C257.2,112.15,256.54,134.63,259.74,155Z"/><path class="cls-11" d="M178.82,98.05s19.61-3,38.7,4c0,0,17.34-8.62,38.07-9.57,0,0-4.11,35.6-.23,58.59,0,0-21.84.72-33.45,7.3,0,0-17.87-4.43-34.35-2.36A305.94,305.94,0,0,0,178.82,98.05Z"/><path class="cls-15" d="M259.74,155c-12.61-1.1-25.21,1.54-37.8,7.6L217.2,97.66c12.76-6.31,27.52-8.73,43.2-9.38C257.2,112.15,256.54,134.63,259.74,155Z"/><path class="cls-8" d="M192.36,127.08a23.67,23.67,0,0,0-6,1.08c3.64-1.82,5.24-4.68,3.13-4.94-2.69-.32-8.4,2.81-8.4,2.81h0a4,4,0,0,0-1.46,1.3c-2,2.77-1.47,9.36.16,13.19h0a2.29,2.29,0,0,0,2.26,1.37,16.87,16.87,0,0,0,2.35-.31c4.58-.91,9.44-3.42,7.5-3.93a23.66,23.66,0,0,0-6-.31c4-.89,8-3.54,6-4.06A23.46,23.46,0,0,0,186,133C190.26,131.56,194.67,127.14,192.36,127.08Z"/><path class="cls-8" d="M246.37,122.56a23.42,23.42,0,0,1,6,.2c-3.87-1.27-5.87-3.88-3.82-4.43,2.62-.71,8.72,1.56,8.72,1.56h0A4,4,0,0,1,259,121c2.34,2.46,2.81,9,1.76,13.07v0a2.31,2.31,0,0,1-2,1.68,16.9,16.9,0,0,1-2.37,0c-4.67-.23-9.85-2-8-2.8a23.36,23.36,0,0,1,5.84-1.16c-4.1-.31-8.38-2.35-6.49-3.15a22.81,22.81,0,0,1,5.82-1.17C249.1,126.68,244.09,123,246.37,122.56Z"/><path class="cls-16" d="M102,82.3A26.44,26.44,0,0,0,74.91,55.81c-7.78.24-15.63,2.28-21.08,8.08-15,16-9.85,53.65-2.73,76.74,3.62,11.75,14.6,16,27.35,14.92A25.63,25.63,0,0,0,102,130Z"/><path class="cls-17" d="M56.07,73.79a4.13,4.13,0,0,0-4.33-3.41c-1.8.13-5.49.53-7.59,2.94-4.59,5.26-5.94,19.51-3.56,22.22s6.8.72,10.63-.25C54.67,94.42,57.58,82.57,56.07,73.79Z"/><path class="cls-17" d="M54.35,115.74A4.13,4.13,0,0,0,49.13,114c-1.65.72-5,2.33-6.18,5.31-2.57,6.48.91,20.36,4.06,22.13s6.65-1.59,9.94-3.78C59.91,135.66,58.7,123.51,54.35,115.74Z"/><path class="cls-6" d="M125,204.43a9.66,9.66,0,0,1-4.34,6.41c-5,3.37-13.62,3.92-22.72.84-11.45-3.87-25.92,8.18-33.08,6.2a4.73,4.73,0,0,1-2.86-2.2c-5.25-8.5-7.25-44.75-6.5-57S73,132.43,73,132.43l3.83.3,28.77,2.19,3.3.26C119.69,152.67,126.52,195.93,125,204.43Z"/><path class="cls-18" d="M120.68,210.84c-5,3.37-13.62,3.92-22.72.84-11.45-3.87-25.92,8.18-33.08,6.2-5-13.29-9.38-49.17-5.95-60.76,4.17-14.06,15-22.77,15-22.77a30.79,30.79,0,0,1,2.84-1.62l28.77,2.19c11.81,12.64,10.45,36,14.55,61.26C121.17,202.76,121.29,207.48,120.68,210.84Z"/><path class="cls-19" d="M88,297.66c0-10,.08-35.15.81-44.5.56-7.21-1.6-21.53-1.6-21.53l1.6-63.2c2.4.28,2.07.34,3.78,0l13.92,69.26c2.09,16.32,5.75,24.16,5.75,24.16l12.63,35.81h9.46l-25-153.48-38-5S63,150,63.29,164.58c.27,13,11.74,112,14.2,133.08Z"/><path class="cls-10" d="M107.8,114.13c.07,13.32,2.2,34,2.2,34-13.16,6-40.76-5.63-40.76-5.63a70.64,70.64,0,0,0,5.67-28.65c0-.6,0-1.22-.1-1.85,0,0,0-.08,0-.12a45.3,45.3,0,0,0-1.51-7.8c-.28-1-.59-2.09-.92-3.14-4-12.72-10.72-26-6-29.84a83.76,83.76,0,0,1,10.76-7.18A40.92,40.92,0,0,1,80.84,62s10.24-.91,18.78.68c3.63.67,6.9,1.79,8.85,3.63,8.82,8.33,2.13,21.63,0,37.54l-.15,1.14c-.24,2-.4,4-.45,6.08C107.8,112.05,107.8,113.07,107.8,114.13Z"/><path class="cls-12" d="M108.43,103.88l-.15,1.14c-.24,2-.4,4-.45,6.08,0,1,0,2,0,3-7.33,1.47-21.27,3.12-33-2.13,0,0,0-.08,0-.12a45.3,45.3,0,0,0-1.51-7.8c-.28-1-.59-2.09-.92-3.14,2.77,1.4,6.77,3.87,11.91,4.86C93.49,107.59,102.34,107.58,108.43,103.88Z"/><path class="cls-8" d="M91.57,77c-9.13.38-13.07-8.56-14.48-13.1A40.92,40.92,0,0,1,80.84,62s10.24-.91,18.78.68C100.18,68.31,99.65,76.69,91.57,77Z"/><path class="cls-3" d="M85.94,35C82.4,50.71,71.68,61.1,61,61.58c-12.06.55-14.48-11.82-14.48-11.82,6.28,1.71,14.6-1.33,9.78-15.4S56.05,5,67.48.89c6.81-2.44,11.71.6,14.56,3.45l.31.32A17.81,17.81,0,0,1,85,8.13,55.29,55.29,0,0,1,85.94,35Z"/><path class="cls-20" d="M85.94,35,70.22,42S61.94,33.62,65,19C67.2,8.32,76.7,5.26,82.35,4.66A17.81,17.81,0,0,1,85,8.13,55.29,55.29,0,0,1,85.94,35Z"/><path class="cls-7" d="M100.27,31.48s3.71-4.24,6.74-.56c2.66,3.24,1,11.81-5.49,11.57Z"/><path class="cls-8" d="M94.88,64.1C94.59,68,86,70.16,81,63.48l-.64-8.55-.48-6.28,15.84,3.08L95,61.61Z"/><path class="cls-7" d="M95,62.8c-5.4,0-11.47-3.55-14.52-6l-.62-8.17,15.84,3.08Z"/><path class="cls-8" d="M88,56.07C72.53,52.53,69.72,32.25,69.72,32.25a22.14,22.14,0,0,1,.21-3.34,25.82,25.82,0,0,1,.75-3.7c1.11-3.9,3.49-8.34,8.58-10.28l.48-.18c8.44-3,20.78-1.59,24.53,9.58a19.51,19.51,0,0,1,.57,2.17c.09.44.17.89.24,1.36C106.76,39.4,101.91,59.25,88,56.07Z"/><path class="cls-3" d="M86,35.35a2,2,0,0,1-2.24-1.69,1.88,1.88,0,0,1,.15-1.08c-1.63-.19-1.59-1.18-1.59-1.18.25.42,2.15.18,2.94.05h0l.24,0h.1a2,2,0,0,1,.4,3.94Z"/><path class="cls-8" d="M72.38,32.66s-5.55-3-7.33,2c-1.56,4.45,3.49,12.86,10.25,10.11Z"/><path class="cls-3" d="M97.31,47.46a5.56,5.56,0,0,1-1,1.49,5.46,5.46,0,0,1-4.2,1.57,5.35,5.35,0,0,1-4-2.06,11.59,11.59,0,0,1-1.53-2.3A12.52,12.52,0,0,1,86,44.69s8.1-.25,12-.83h0a8.14,8.14,0,0,1-.08,1.59A7.68,7.68,0,0,1,97.31,47.46Z"/><path class="cls-5" d="M97.87,45.46c-3.7.72-9.68.66-11.26.7A12.52,12.52,0,0,1,86,44.69s8.1-.25,12-.83h0A8.14,8.14,0,0,1,97.87,45.46Z"/><path class="cls-7" d="M73,41.93a9.49,9.49,0,0,0-5.47-6.64s4.24,4,3.9,6.69Z"/><path class="cls-9" d="M96.33,49a5.46,5.46,0,0,1-4.2,1.57,5.35,5.35,0,0,1-4-2.06,5.13,5.13,0,0,1,4.15-.24,3.55,3.55,0,0,1,2.08-.3A2.61,2.61,0,0,1,96.33,49Z"/><path class="cls-7" d="M91.31,52.88a7.64,7.64,0,0,1-2.59-1,.45.45,0,1,1,.52-.74,6,6,0,0,0,5.84.37.45.45,0,0,1,.43.79A6.21,6.21,0,0,1,91.31,52.88Z"/><path class="cls-7" d="M93.32,42H91a.48.48,0,1,1,0-1h2.34a.1.1,0,0,0,.09-.05.09.09,0,0,0,0-.09l-2-6.68A.48.48,0,1,1,92.4,34l1.95,6.68a1,1,0,0,1-.17.94A1,1,0,0,1,93.32,42Z"/><path class="cls-3" d="M87.4,27.2h0a.93.93,0,0,1-.82,1.09c-1.8.18-5.55.79-7.25,2.86,0,0,.37-3.39,7-4.68A.93.93,0,0,1,87.4,27.2Z"/><path class="cls-3" d="M94.85,27.14h0a.92.92,0,0,0,1,.94c1.81-.14,5.61-.2,7.64,1.54,0,0-1-3.27-7.69-3.39A.92.92,0,0,0,94.85,27.14Z"/><path class="cls-3" d="M98.46,35.1a2,2,0,0,0,2.09-2.78c1.63-.19,1.6-1.17,1.6-1.17-.26.42-2.16.17-2.94.05h0l-.23,0h-.11a2,2,0,0,0-.4,4Z"/><path class="cls-3" d="M99.78,27.12a6.27,6.27,0,0,0-6.19,5.35,2.86,2.86,0,0,0-2.42.06,6.26,6.26,0,0,0-12-1.44,15.31,15.31,0,0,0-7.91-.78l.19,1a14.55,14.55,0,0,1,7.43.76,5.92,5.92,0,0,0-.15,1.34,6.26,6.26,0,0,0,12.52.25,1.89,1.89,0,0,1,2.31,0,6.26,6.26,0,1,0,6.25-6.5ZM85,38.65a5.27,5.27,0,1,1,5.27-5.26A5.27,5.27,0,0,1,85,38.65Zm14.82,0A5.27,5.27,0,1,1,105,33.39,5.27,5.27,0,0,1,99.78,38.65Z"/><path class="cls-3" d="M89.68,16.76S84.84,30.12,73.5,34.9c0,0-.55-3.6-5.47-3.06,0,0-.47-.84-1.19-4.93S68.71,6,87.41,7.05c0,0,6-1.21,14.28,5.91s3.71,16.7,3.71,16.7S92,24,89.68,16.76Z"/><path class="cls-6" d="M72.91,131.43s-6.48,7.59-6.14,13.09l23.62,5.31,2-2.05S80.88,135.18,72.91,131.43Z"/><path class="cls-6" d="M108.85,135.18s4.05,6.63,1.15,12.95c-5.32,3.34-11.27,3.44-17.57,1.7l-2-2.05S100.88,138.92,108.85,135.18Z"/><path class="cls-6" d="M85.35,146.14,73.94,172.43a14.47,14.47,0,0,0,12.82,2.26l4.3-25.89S90.26,145.35,85.35,146.14Z"/><path class="cls-21" d="M74.55,169.66s6.63,3.9,13.18,2.49l-.37,4.07a16.12,16.12,0,0,1-14.64-3.07Z"/><path class="cls-6" d="M96.43,146.14l11.42,26.29A14.5,14.5,0,0,1,95,174.69l-4.3-25.89S91.52,145.35,96.43,146.14Z"/><path class="cls-21" d="M94.29,171.69s7.2,1.83,13-1.42l1.68,3.31s-5.34,5.39-14.59,2.1Z"/><path class="cls-8" d="M110.45,68.65s18.13,27.93,20.86,41.9a7.34,7.34,0,0,1-.42,4.19c-2.48,5.86-11.69,20.44-19.44,24.48,0,0-2.88-3.66-3.29-6.08a33.71,33.71,0,0,0,9.56-11.66c2.29-4.9,4.6-9.32,4.6-9.32s-4.89-9.53-10.34-22.75C112,89.41,110.14,74.91,110.45,68.65Z"/><path class="cls-8" d="M102.93,136.1c.4.89,2.56.35,3.86-.36-.88.58-2.62,1.88-2.83,3.22s3.14.42,4.33,0l.39-.14-.39.14c-.81.33-2.48,1.16-2,2.3.57,1.43,4.13.28,4.34.21-.19.07-3.17,1.3-2.39,2.25s7.89.25,8.77-.76c.56-.64.52-3,0-5a9.79,9.79,0,0,0-3.16-5.18,7,7,0,0,0-1.79-1.11c0-.12-2.08-4.53-4-3.27-.6.38-.17,2,.24,3.14C105,132.45,102.53,135.22,102.93,136.1Zm3.89-.37a5.14,5.14,0,0,1,.47-.29A4.83,4.83,0,0,1,106.82,135.73Z"/><path class="cls-8" d="M108.68,138.82l-.39.14Z"/><path class="cls-8" d="M106.82,135.73a4.83,4.83,0,0,0,.47-.29A5.14,5.14,0,0,0,106.82,135.73Z"/><path class="cls-10" d="M94,311.75c-.25,5-15.89,3.27-18.39,1.77a3.53,3.53,0,0,1-1.44-3,24.12,24.12,0,0,1,1.2-7.08c1-3.52.86-3.45,1.56-5.86,0,0-.18-3.92,4.94-5.41s7,8.25,7.88,10.13c.8,1.71,3.91,4.06,4.23,8.29A9.68,9.68,0,0,1,94,311.75Z"/><path class="cls-5" d="M79.11,300.69l-.41-.62c.19-.13,4.71-3,8.64-1.3l-.3.68C83.48,297.89,79.15,300.67,79.11,300.69Z"/><path class="cls-5" d="M79.56,305l-.41-.62c.19-.13,4.71-3,8.64-1.3l-.3.69C83.92,302.24,79.6,305,79.56,305Z"/><path class="cls-5" d="M79.33,302.87l-.41-.63c.19-.12,4.71-3,8.65-1.3l-.3.69C83.7,300.07,79.38,302.84,79.33,302.87Z"/><path class="cls-5" d="M79.7,300.5a.84.84,0,1,1-.84-.85A.84.84,0,0,1,79.7,300.5Z"/><path class="cls-5" d="M79.75,302.56a.85.85,0,1,1-.85-.85A.85.85,0,0,1,79.75,302.56Z"/><path class="cls-5" d="M80.19,304.62a.84.84,0,1,1-.84-.84A.83.83,0,0,1,80.19,304.62Z"/><path class="cls-5" d="M88.48,303.4a.84.84,0,1,1-.84-.84A.84.84,0,0,1,88.48,303.4Z"/><path class="cls-5" d="M88.26,301.15a.85.85,0,1,1-.84-.84A.85.85,0,0,1,88.26,301.15Z"/><path class="cls-5" d="M88,298.9a.85.85,0,1,1-.85-.84A.85.85,0,0,1,88,298.9Z"/><path class="cls-5" d="M94,311.75c-.25,5-15.89,3.27-18.39,1.77a3.53,3.53,0,0,1-1.44-3,18.36,18.36,0,0,0,8.86,2.19c5.3.09,9.13-1,11-2.12A9.68,9.68,0,0,1,94,311.75Z"/><path class="cls-5" d="M84.1,293.66a8.32,8.32,0,0,0-4.4.88l.23,1.58a17.54,17.54,0,0,1,4.71-.71A3.75,3.75,0,0,0,84.1,293.66Z"/><path class="cls-16" d="M73.07,127.77A2.87,2.87,0,0,1,70.89,123C86.74,104.53,72.1,66.14,72,65.75a2.87,2.87,0,1,1,5.36-2.08A114.88,114.88,0,0,1,83.13,86.9a73.52,73.52,0,0,1,.27,20.56c-1.13,7.82-3.88,14.32-8.15,19.31A2.87,2.87,0,0,1,73.07,127.77Z"/><path class="cls-16" d="M116,100.6a39.1,39.1,0,0,1-5.7,19.55,2.87,2.87,0,0,1-2.28,1.33c-.11-2.57-.19-5.07-.2-7.35,0-.6,0-1.18,0-1.74a39.69,39.69,0,0,0,2.31-17.74c-1.19-15.75-9-30.25-9.16-30.46a2.88,2.88,0,1,1,5-2.77c.08.15,1,1.91,2.33,4.8a98.5,98.5,0,0,1,4.56,12.35c.29,1,.57,2,.84,3.06A66.43,66.43,0,0,1,116,100.6Z"/><path class="cls-10" d="M153.08,312.66H124.71a2.63,2.63,0,0,1-2.61-2.28,3.33,3.33,0,0,1,0-.55l1.16-14.91a16.79,16.79,0,0,1,2.83-.93,2.89,2.89,0,0,0,2.11-1.91c0-.07,0-.14,0-.22.65-2.86,4.79-3.78,5.55-1,.1.36.19.71.26,1.05a2.21,2.21,0,0,1,.05.25c.13.6.22,1.16.28,1.64v0a14.66,14.66,0,0,1,.14,2c.38.48.74.95,1.09,1.41l.53.68c.37.49.73,1,1.09,1.41l.49.62c.4.5.79,1,1.17,1.4l.53.58a8.27,8.27,0,0,0,4.69,2.83c3.07.42,8.1.76,10.53,5.27a1.78,1.78,0,0,1,.12.29A1.75,1.75,0,0,1,153.08,312.66Z"/><path class="cls-5" d="M153.08,312.66H124.71a2.63,2.63,0,0,1-2.61-2.28h32.65A1.75,1.75,0,0,1,153.08,312.66Z"/><path class="cls-5" d="M136.13,298a5,5,0,0,1-2.35,1.61l-.75.27-.25-.74.73-.27c1.55-.62,2-1.24,2.09-1.55Z"/><circle class="cls-5" cx="132.9" cy="299.49" r="0.88"/><path class="cls-5" d="M137.71,300a5.47,5.47,0,0,1-1.94,1.23q-.41.17-.9.33l-.24-.74.83-.3a4.48,4.48,0,0,0,1.76-1.14Z"/><circle class="cls-5" cx="134.89" cy="301.2" r="0.88"/><path class="cls-5" d="M139.41,302a5.65,5.65,0,0,1-1.88,1.17c-.27.11-.58.23-.91.34l-.24-.75a8.61,8.61,0,0,0,.83-.31,4.75,4.75,0,0,0,1.67-1Z"/><circle class="cls-5" cx="136.65" cy="303.13" r="0.88"/><path class="cls-5" d="M134.37,293.83a18.87,18.87,0,0,0-2.53.15v-1.43a6.66,6.66,0,0,1,2.24-.36C134.22,292.79,134.31,293.35,134.37,293.83Z"/><path class="cls-8" d="M74,131.56c.4-1.15.83-2.76.24-3.14-1.94-1.26-4,3.15-4,3.27a7,7,0,0,0-1.79,1.11A9.72,9.72,0,0,0,65.26,138c-.49,2-.52,4.34,0,5,.88,1,8,1.74,8.78.76s-2.21-2.18-2.4-2.25c.22.07,3.78,1.22,4.35-.21.45-1.14-1.23-2-2-2.3l-.38-.14L74,139c1.2.42,4.56,1.49,4.33,0s-2-2.64-2.83-3.22c1.31.71,3.47,1.25,3.87.36S77.23,132.45,74,131.56Zm1,3.88s.22.12.48.29A5.06,5.06,0,0,1,75,135.44Z"/><path class="cls-8" d="M73.6,138.82,74,139Z"/><path class="cls-8" d="M75.46,135.73a5.06,5.06,0,0,1-.48-.29S75.2,135.56,75.46,135.73Z"/><path class="cls-8" d="M44.67,108.26c-4.76,11,20.87,31.52,20.87,31.52h0a4.55,4.55,0,0,0,2.9-2.5,19.23,19.23,0,0,0,1.27-3.46s-4.64-5.62-9.35-12.75a36,36,0,0,0-6.5-7.54A193.57,193.57,0,0,0,70.19,90S75,77.53,65.39,72.24C65.39,72.24,52.28,90.7,44.67,108.26Z"/></g></g></svg>