<svg id="Ñëîé_1" data-name="Ñëîé 1" xmlns="http://www.w3.org/2000/svg" viewBox="0 0 600 400"><defs><style>.cls-1{fill:#c4d9e8;opacity:0.5;}.cls-2{fill:#173d7a;}.cls-3{fill:#396caa;}.cls-4{fill:#274f89;}.cls-5{fill:#d4ecff;}.cls-6{fill:#fff;}.cls-7{fill:#5793ce;}.cls-8{fill:#d3d0cf;}.cls-9{fill:#f2f2f2;}.cls-10{font-size:17.39px;fill:#606060;}.cls-10,.cls-11{font-family:Impact;}.cls-11{font-size:34.76px;fill:#ff8c00;}.cls-12{letter-spacing:-0.07em;}</style></defs><title>874 [Convertido]</title><path class="cls-1" d="M286.43,304.54l-27.16,15.93c-6.88-2.11-15.65-1.46-21.44,1.94-7,4.13-7,10.75.1,14.78a21.46,21.46,0,0,0,5.35,2.1,27.8,27.8,0,0,0,4.24.73c5.65.55,11.68-.46,16-3,5.26-3.08,6.56-7.56,3.93-11.31l3.74-2.2-.1-2.38,3.94,0-.1-2.23,3.95,0-.1-2.23,3.94,0-.1-2.23,3.94,0-.1-2.23,4.21,0,1.29-.75,1.42-5.85ZM248.22,335a7.39,7.39,0,0,1-6.67,0c-1.85-1.05-1.86-2.77,0-3.85a7.39,7.39,0,0,1,6.67,0C250,332.23,250.05,334,248.22,335Z"/><path class="cls-1" d="M299.93,375l-35-20.11c-2.35-1.36-2.06-3.73.66-5.3L299.56,330c2.72-1.57,6.83-1.74,9.18-.38l35,20.11c2.35,1.35,2.06,3.73-.66,5.3l-33.95,19.6C306.39,376.22,302.28,376.39,299.93,375Z"/><path class="cls-1" d="M399.61,339,283.47,271.91c-3.29-1.89-2.88-5.21.92-7.4l79.08-45.64c3.8-2.19,9.53-2.43,12.82-.53l116.14,67c3.29,1.9,2.88,5.21-.92,7.4l-79.08,45.65C408.63,340.63,402.9,340.87,399.61,339Z"/><path class="cls-2" d="M519.63,166.61,403.49,99.55a4.66,4.66,0,0,0-3.93-.48h0l-.21.08-.05,0-4.2,1.6,3.77,1.85a1.46,1.46,0,0,0-.05.2L379.9,188.92c-.95,4.31,1,9.34,4.23,11.24L497.48,265.6l-.4,4.81,4.59-1.78A6.44,6.44,0,0,0,505,264l18.92-86.12C524.82,173.53,522.92,168.5,519.63,166.61Z"/><path class="cls-3" d="M519.63,166.61,403.49,99.55a4.66,4.66,0,0,0-3.93-.48h0l-.21.08-.05,0-4.2,1.6,3.77,1.85a1.46,1.46,0,0,0-.05.2l-12.47,56.75,56.83,44.28,80.12-32.61A9,9,0,0,0,519.63,166.61Z"/><path class="cls-4" d="M515.26,179.84l8.84-3.76a11.07,11.07,0,0,0-3.59-8.85l-14,5.88Z"/><path class="cls-5" d="M493,270l-116.14-67c-3.28-1.9-5.18-6.93-4.23-11.24l18.91-86.11c.95-4.31,4.38-6.27,7.67-4.37l116.14,67c3.29,1.9,5.18,6.93,4.23,11.24l-18.91,86.11C499.76,269.89,496.33,271.85,493,270Z"/><path class="cls-6" d="M490.53,263.55l-109.23-63c-3-1.73-4.74-6.34-3.88-10.28l17.31-78.8c.87-3.94,4-5.73,7-4l109.22,63c3,1.74,4.75,6.34,3.88,10.29l-17.31,78.8C496.67,263.49,493.53,265.28,490.53,263.55Z"/><path class="cls-6" d="M490.53,263.55l-109.23-63c-3-1.73-4.74-6.34-3.88-10.28l17.31-78.8c.87-3.94,4-5.73,7-4l109.22,63c3,1.74,4.75,6.34,3.88,10.29l-17.31,78.8C496.67,263.49,493.53,265.28,490.53,263.55Z"/><path class="cls-2" d="M494.65,272.87l-15.88-2.1L376.29,211.61c-3.29-1.9-9-1.66-12.82.53l-72.62,41.91-9.6-1.27v5.45h0a3.74,3.74,0,0,0,2.21,3.36l116.14,67.06c3.29,1.9,9,1.66,12.82-.53l79.08-45.65c2.14-1.23,3.2-2.82,3.14-4.31h0Z"/><path class="cls-3" d="M417.65,235.48l-7.28-4.2H330.32l-39.47,22.77-9.6-1.27v5.45h0a3.74,3.74,0,0,0,2.21,3.36l116.14,67.06a12.07,12.07,0,0,0,6.61,1.24Z"/><path class="cls-7" d="M285.51,253.34l-4.26-.56v5.45h0a3.74,3.74,0,0,0,2.21,3.36l2,1.19Z"/><path class="cls-4" d="M400.78,329.19a14.88,14.88,0,0,0,10.89-.67V316.37H400.78Z"/><path class="cls-5" d="M399.61,323.21,283.47,256.15c-3.29-1.89-2.88-5.21.92-7.4l79.08-45.64c3.8-2.19,9.53-2.43,12.82-.53l116.14,67c3.29,1.9,2.88,5.21-.92,7.4l-79.08,45.65C408.63,324.87,402.9,325.1,399.61,323.21Z"/><path class="cls-6" d="M491.51,275l-79.08,45.65c-3.8,2.19-9.53,2.43-12.82.53L283.47,254.16a4.33,4.33,0,0,1-2.05-2.23c-.51,1.55.15,3.13,2.05,4.22l116.14,67.06c3.29,1.89,9,1.66,12.82-.53L491.51,277c2.55-1.47,3.57-3.45,3-5.16A6.13,6.13,0,0,1,491.51,275Z"/><path class="cls-2" d="M332.86,234l-5.25-3c-.42-.24-.37-.67.12-.95l6.2-3.58a1.85,1.85,0,0,1,1.65-.07l5.25,3c.42.25.37.67-.12,1l-6.2,3.59A1.82,1.82,0,0,1,332.86,234Z"/><path class="cls-2" d="M341,238.64l-5.26-3c-.42-.25-.36-.67.12-1l6.21-3.59a1.8,1.8,0,0,1,1.64-.06l5.26,3c.42.24.37.67-.12,1l-6.2,3.58A1.85,1.85,0,0,1,341,238.64Z"/><path class="cls-2" d="M349.09,243.32l-5.25-3c-.42-.24-.37-.67.12-.95l6.2-3.58a1.85,1.85,0,0,1,1.65-.07l5.25,3c.42.24.37.66-.12,1l-6.2,3.58A1.82,1.82,0,0,1,349.09,243.32Z"/><path class="cls-2" d="M360.32,239.46l-5.26-3c-.42-.24-.37-.67.12-.95l5.21-3a1.77,1.77,0,0,1,1.64-.07l5.26,3c.42.24.37.67-.12.95l-5.21,3A1.83,1.83,0,0,1,360.32,239.46Z"/><path class="cls-2" d="M368.43,244.14l-5.25-3c-.42-.25-.37-.67.12-1l5.2-3a1.85,1.85,0,0,1,1.65-.07l5.25,3c.43.24.37.67-.11.95l-5.21,3A1.85,1.85,0,0,1,368.43,244.14Z"/><path class="cls-2" d="M376.55,248.83l-5.26-3c-.42-.24-.36-.67.12-.95l5.21-3a1.79,1.79,0,0,1,1.65-.07l5.25,3c.42.25.37.67-.12.95l-5.2,3A1.85,1.85,0,0,1,376.55,248.83Z"/><path class="cls-2" d="M384.66,253.51l-5.25-3c-.42-.25-.37-.67.12-.95l5.2-3a1.85,1.85,0,0,1,1.65-.07l5.26,3c.42.24.36.67-.12.95l-5.21,3A1.82,1.82,0,0,1,384.66,253.51Z"/><path class="cls-2" d="M392.78,258.2l-5.26-3c-.42-.24-.36-.67.12-.95l5.21-3a1.82,1.82,0,0,1,1.65-.07l5.25,3c.42.25.37.67-.12,1l-5.2,3A1.85,1.85,0,0,1,392.78,258.2Z"/><path class="cls-2" d="M400.89,262.88l-5.25-3c-.42-.25-.37-.67.12-1l5.2-3a1.85,1.85,0,0,1,1.65-.07l5.26,3c.42.24.36.67-.12.95l-5.21,3A1.79,1.79,0,0,1,400.89,262.88Z"/><path class="cls-2" d="M409,267.57l-5.25-3c-.43-.24-.37-.67.11-.95l5.21-3a1.85,1.85,0,0,1,1.65-.07l5.25,3c.42.25.37.67-.12.95l-5.2,3A1.85,1.85,0,0,1,409,267.57Z"/><path class="cls-2" d="M417.13,272.25l-5.26-3c-.42-.24-.37-.67.12-1l5.21-3a1.83,1.83,0,0,1,1.64-.07l5.26,3c.42.24.37.67-.12.95l-5.21,3A1.77,1.77,0,0,1,417.13,272.25Z"/><path class="cls-2" d="M425.24,276.94l-5.25-3c-.43-.24-.37-.66.11-.95l5.21-3a1.85,1.85,0,0,1,1.65-.07l5.25,3c.42.25.37.67-.12.95l-5.2,3A1.85,1.85,0,0,1,425.24,276.94Z"/><path class="cls-2" d="M433.36,281.62l-5.26-3c-.42-.24-.37-.67.12-.95l5.21-3a1.83,1.83,0,0,1,1.64-.07l5.26,3c.42.24.37.67-.12.95l-5.21,3A1.8,1.8,0,0,1,433.36,281.62Z"/><path class="cls-3" d="M372.28,237.24l-5.26-3c-.42-.24-.37-.67.12-.95l5.21-3a1.8,1.8,0,0,1,1.64-.07l5.26,3c.42.25.37.67-.12.95l-5.21,3A1.83,1.83,0,0,1,372.28,237.24Z"/><path class="cls-3" d="M364,232.48l-5.26-3c-.42-.25-.36-.67.12-.95l5.21-3a1.85,1.85,0,0,1,1.65-.07l5.25,3c.42.24.37.67-.12.95l-5.2,3A1.82,1.82,0,0,1,364,232.48Z"/><path class="cls-2" d="M355.79,227.72l-11.32-6.54c-.42-.24-.37-.66.12-1l5.21-3a1.83,1.83,0,0,1,1.64-.07l11.32,6.53c.42.25.37.67-.12.95l-5.2,3A1.85,1.85,0,0,1,355.79,227.72Z"/><path class="cls-2" d="M361.56,221.93l-9.19-5.31c-.42-.24-.37-.67.12-1l5.21-3a1.83,1.83,0,0,1,1.64-.07l9.19,5.3c.42.25.37.67-.12.95l-5.21,3A1.83,1.83,0,0,1,361.56,221.93Z"/><path class="cls-3" d="M380.39,241.92l-5.25-3c-.43-.24-.37-.67.11-.95l5.21-3a1.85,1.85,0,0,1,1.65-.07l5.25,3c.42.24.37.67-.12.95l-5.2,3A1.79,1.79,0,0,1,380.39,241.92Z"/><path class="cls-2" d="M388.51,246.61l-5.26-3c-.42-.24-.37-.67.12-.95l5.21-3a1.83,1.83,0,0,1,1.64-.07l5.26,3c.42.25.37.67-.12.95l-5.21,3A1.83,1.83,0,0,1,388.51,246.61Z"/><path class="cls-2" d="M396.62,251.29l-5.25-3c-.43-.24-.37-.67.11-.95l5.21-3a1.85,1.85,0,0,1,1.65-.07l5.25,3c.42.24.37.67-.12.95l-5.2,3A1.82,1.82,0,0,1,396.62,251.29Z"/><path class="cls-2" d="M404.74,256l-5.26-3c-.42-.24-.37-.66.12-.95l5.21-3a1.83,1.83,0,0,1,1.64-.07l5.26,3c.42.25.37.67-.12,1l-5.21,3A1.83,1.83,0,0,1,404.74,256Z"/><path class="cls-2" d="M412.85,260.66l-5.25-3c-.42-.24-.37-.67.12-.95l5.2-3a1.82,1.82,0,0,1,1.65-.06l5.25,3c.43.24.37.67-.11.95l-5.21,3A1.82,1.82,0,0,1,412.85,260.66Z"/><path class="cls-2" d="M421,265.35l-5.26-3c-.42-.25-.37-.67.12-1l5.21-3a1.83,1.83,0,0,1,1.64-.07l5.26,3c.42.25.37.67-.12.95l-5.21,3A1.83,1.83,0,0,1,421,265.35Z"/><path class="cls-2" d="M429.08,270l-5.25-3c-.42-.24-.37-.67.12-.95l5.2-3a1.82,1.82,0,0,1,1.65-.06l5.25,3c.43.24.37.67-.11.95l-5.21,3A1.82,1.82,0,0,1,429.08,270Z"/><path class="cls-2" d="M437.2,274.72l-5.26-3c-.42-.25-.37-.67.12-.95l5.21-3a1.83,1.83,0,0,1,1.64-.07l5.26,3c.42.24.37.66-.12.95l-5.21,3A1.83,1.83,0,0,1,437.2,274.72Z"/><path class="cls-2" d="M445.31,279.41l-5.25-3c-.42-.24-.37-.67.12-.95l5.2-3a1.82,1.82,0,0,1,1.65-.06l5.25,3c.43.24.37.67-.11.95l-5.21,3A1.85,1.85,0,0,1,445.31,279.41Z"/><path class="cls-2" d="M459.74,287.73l-11.47-6.62c-.42-.24-.36-.66.12-.95l5.21-3a1.85,1.85,0,0,1,1.65-.07l11.46,6.62c.42.24.37.67-.12,1l-5.2,3A1.82,1.82,0,0,1,459.74,287.73Z"/><path class="cls-2" d="M475.54,278.61,465.86,273c-.42-.25-.37-.67.12-.95l5.21-3a1.83,1.83,0,0,1,1.64-.07l9.68,5.59c.42.24.37.67-.12,1l-5.2,3A1.79,1.79,0,0,1,475.54,278.61Z"/><path class="cls-2" d="M394.6,241l-5.25-3c-.42-.24-.37-.67.12-.95l5.2-3a1.79,1.79,0,0,1,1.65-.07l5.25,3c.43.24.37.67-.11,1l-5.21,3A1.85,1.85,0,0,1,394.6,241Z"/><path class="cls-2" d="M386.29,236.2l-5.26-3c-.42-.24-.37-.67.12-.95l5.21-3a1.8,1.8,0,0,1,1.64-.06l5.26,3c.42.24.37.67-.12.95l-5.21,3A1.8,1.8,0,0,1,386.29,236.2Z"/><path class="cls-3" d="M378,231.4l-5.26-3c-.42-.25-.37-.67.12-1l5.21-3a1.83,1.83,0,0,1,1.64-.07l5.26,3c.42.24.37.67-.12,1l-5.21,3A1.77,1.77,0,0,1,378,231.4Z"/><path class="cls-2" d="M369.65,226.6l-5.25-3c-.43-.25-.37-.67.11-.95l5.21-3a1.85,1.85,0,0,1,1.65-.07l5.25,3c.42.24.37.66-.12.95l-5.2,3A1.85,1.85,0,0,1,369.65,226.6Z"/><path class="cls-2" d="M402.72,245.69l-5.26-3c-.42-.25-.37-.67.12-.95l5.21-3a1.83,1.83,0,0,1,1.64-.07l5.26,3c.42.24.37.67-.12,1l-5.21,3A1.83,1.83,0,0,1,402.72,245.69Z"/><path class="cls-2" d="M410.83,250.38l-5.25-3c-.42-.24-.37-.67.12-1l5.2-3a1.79,1.79,0,0,1,1.65-.07l5.25,3c.43.25.37.67-.11,1l-5.21,3A1.85,1.85,0,0,1,410.83,250.38Z"/><path class="cls-2" d="M419,255.06l-5.26-3c-.42-.25-.37-.67.12-.95l5.21-3a1.83,1.83,0,0,1,1.64-.07l5.26,3c.42.24.37.67-.12,1l-5.21,3A1.8,1.8,0,0,1,419,255.06Z"/><path class="cls-2" d="M427.06,259.75l-5.25-3c-.42-.24-.37-.67.12-.95l5.2-3a1.82,1.82,0,0,1,1.65-.07l5.25,3c.43.25.37.67-.11,1l-5.21,3A1.85,1.85,0,0,1,427.06,259.75Z"/><path class="cls-2" d="M435.18,264.43l-5.26-3c-.42-.25-.37-.67.12-.95l5.21-3a1.85,1.85,0,0,1,1.65-.07l5.25,3c.42.24.37.67-.12.95l-5.2,3A1.79,1.79,0,0,1,435.18,264.43Z"/><path class="cls-2" d="M443.29,269.12l-5.25-3c-.42-.24-.37-.67.12-.95l5.2-3a1.85,1.85,0,0,1,1.65-.07l5.26,3c.42.25.36.67-.12,1l-5.21,3A1.85,1.85,0,0,1,443.29,269.12Z"/><path class="cls-2" d="M451.41,273.8l-5.26-3c-.42-.24-.36-.67.12-.95l5.21-3a1.85,1.85,0,0,1,1.65-.07l5.25,3c.42.24.37.67-.12,1l-5.2,3A1.82,1.82,0,0,1,451.41,273.8Z"/><path class="cls-2" d="M459.52,278.49l-5.25-3c-.42-.24-.37-.66.12-.95l5.2-3a1.85,1.85,0,0,1,1.65-.07l5.26,3c.42.25.36.67-.12,1l-5.21,3A1.85,1.85,0,0,1,459.52,278.49Z"/><path class="cls-2" d="M467.64,283.17l-5.26-3c-.42-.24-.36-.67.12-.95l5.21-3a1.82,1.82,0,0,1,1.65-.06l5.25,3c.42.24.37.67-.12,1l-5.2,3A1.82,1.82,0,0,1,467.64,283.17Z"/><path class="cls-2" d="M390.33,229.42l-5.26-3c-.42-.24-.36-.67.12-.95l5.21-3a1.82,1.82,0,0,1,1.65-.07l5.25,3c.42.25.37.67-.12,1l-5.2,3A1.85,1.85,0,0,1,390.33,229.42Z"/><path class="cls-2" d="M382.25,224.76l-5.25-3c-.42-.24-.37-.67.12-.95l5.2-3a1.82,1.82,0,0,1,1.65-.06l5.26,3c.42.24.36.67-.12,1l-5.21,3A1.85,1.85,0,0,1,382.25,224.76Z"/><path class="cls-2" d="M374.18,220.09l-5.26-3c-.42-.24-.36-.67.12-.95l5.21-3a1.85,1.85,0,0,1,1.65-.07l5.25,3c.42.24.37.67-.12,1l-5.2,3A1.79,1.79,0,0,1,374.18,220.09Z"/><path class="cls-2" d="M366.1,215.43l-5.25-3c-.42-.25-.37-.67.12-1l5.2-3a1.85,1.85,0,0,1,1.65-.07l5.26,3c.42.24.37.67-.12,1l-5.21,3A1.85,1.85,0,0,1,366.1,215.43Z"/><path class="cls-2" d="M374.41,210.64l-5.26-3c-.42-.24-.37-.67.12-.95l1.72-1a1.85,1.85,0,0,1,1.65-.07l5.25,3c.43.25.37.67-.11.95l-1.73,1A1.83,1.83,0,0,1,374.41,210.64Z"/><path class="cls-2" d="M385,216.72l-5.26-3c-.42-.25-.37-.67.12-.95l1.72-1a1.85,1.85,0,0,1,1.65-.07l5.25,3c.42.24.37.67-.12.95l-1.72,1A1.83,1.83,0,0,1,385,216.72Z"/><path class="cls-2" d="M393,221.36l-5.26-3c-.42-.24-.37-.67.12-1l1.72-1a1.79,1.79,0,0,1,1.65-.07l5.25,3c.42.24.37.67-.12,1l-1.72,1A1.8,1.8,0,0,1,393,221.36Z"/><path class="cls-2" d="M401,226l-5.26-3c-.42-.24-.37-.67.12-.95l1.72-1a1.85,1.85,0,0,1,1.65-.07l5.25,3c.43.25.37.67-.11.95l-1.73,1A1.83,1.83,0,0,1,401,226Z"/><path class="cls-2" d="M409.07,230.65l-5.26-3c-.42-.24-.36-.66.12-1l1.72-1a1.85,1.85,0,0,1,1.65-.07l5.26,3c.42.24.36.67-.12,1l-1.72,1A1.85,1.85,0,0,1,409.07,230.65Z"/><path class="cls-2" d="M454,256.57l-5.25-3c-.42-.24-.37-.67.12-.95l1.72-1a1.83,1.83,0,0,1,1.64-.07l5.26,3c.42.24.37.66-.12.95l-1.72,1A1.85,1.85,0,0,1,454,256.57Z"/><path class="cls-2" d="M462,261.21l-5.25-3c-.42-.25-.37-.67.12-.95l1.72-1a1.83,1.83,0,0,1,1.64-.07l5.26,3c.42.24.37.67-.12.95l-1.72,1A1.85,1.85,0,0,1,462,261.21Z"/><path class="cls-2" d="M470.05,265.85l-5.26-3c-.42-.24-.37-.67.12-.95l1.72-1a1.82,1.82,0,0,1,1.65-.06l5.25,3c.42.24.37.67-.12,1l-1.72,1A1.77,1.77,0,0,1,470.05,265.85Z"/><path class="cls-2" d="M478.09,270.5l-5.26-3c-.42-.24-.37-.67.12-.95l1.72-1a1.85,1.85,0,0,1,1.65-.07l5.25,3c.42.25.37.67-.12.95l-1.72,1A1.83,1.83,0,0,1,478.09,270.5Z"/><path class="cls-2" d="M398.44,234.1l-5.25-3c-.42-.25-.37-.67.12-.95l5.2-3a1.85,1.85,0,0,1,1.65-.07l5.26,3c.42.24.36.67-.12.95l-5.21,3A1.79,1.79,0,0,1,398.44,234.1Z"/><path class="cls-2" d="M406.56,238.79l-5.25-3c-.43-.24-.37-.67.11-.95l5.21-3a1.85,1.85,0,0,1,1.65-.07l5.25,3c.42.25.37.67-.12,1l-5.2,3A1.85,1.85,0,0,1,406.56,238.79Z"/><path class="cls-2" d="M414.68,243.47l-5.26-3c-.42-.24-.37-.67.12-.95l5.21-3a1.83,1.83,0,0,1,1.64-.07l5.26,3c.42.24.37.67-.12,1l-5.21,3A1.77,1.77,0,0,1,414.68,243.47Z"/><path class="cls-2" d="M422.79,248.16l-5.25-3c-.43-.24-.37-.66.11-1l5.21-3a1.85,1.85,0,0,1,1.65-.07l5.25,3c.42.25.37.67-.12,1l-5.2,3A1.85,1.85,0,0,1,422.79,248.16Z"/><path class="cls-2" d="M430.91,252.84l-5.26-3c-.42-.24-.37-.67.12-.95l5.21-3a1.83,1.83,0,0,1,1.64-.07l5.26,3c.42.24.37.67-.12,1l-5.21,3A1.8,1.8,0,0,1,430.91,252.84Z"/><path class="cls-2" d="M439,257.53l-5.25-3c-.43-.25-.37-.67.11-1l5.21-3a1.85,1.85,0,0,1,1.65-.07l5.25,3c.42.25.37.67-.12.95l-5.2,3A1.85,1.85,0,0,1,439,257.53Z"/><path class="cls-2" d="M447.14,262.21l-5.26-3c-.42-.24-.37-.67.12-.95l5.21-3a1.8,1.8,0,0,1,1.64-.06l5.26,3c.42.24.37.67-.12.95l-5.21,3A1.8,1.8,0,0,1,447.14,262.21Z"/><path class="cls-2" d="M455.25,266.9l-5.25-3c-.43-.25-.37-.67.11-.95l5.21-3a1.85,1.85,0,0,1,1.65-.07l5.25,3c.42.25.37.67-.12,1l-5.2,3A1.85,1.85,0,0,1,455.25,266.9Z"/><path class="cls-2" d="M463.37,271.58l-5.26-3c-.42-.24-.37-.67.12-.95l5.21-3a1.8,1.8,0,0,1,1.64-.06l5.26,3c.42.24.37.67-.12.95l-5.21,3A1.8,1.8,0,0,1,463.37,271.58Z"/><path class="cls-2" d="M352.05,234.68l-15.48-8.93c-.42-.25-.37-.67.12-.95l5.21-3a1.83,1.83,0,0,1,1.64-.07L359,230.66c.42.24.37.67-.12,1l-5.21,3A1.83,1.83,0,0,1,352.05,234.68Z"/><path class="cls-2" d="M451.75,292.24l-15.48-8.93c-.42-.25-.37-.67.12-.95l5.2-3a1.85,1.85,0,0,1,1.65-.07l15.48,8.94c.42.24.37.67-.12.95l-5.21,3A1.83,1.83,0,0,1,451.75,292.24Z"/><path class="cls-2" d="M419.29,283.85l-5.25-3c-.42-.24-.37-.67.12-.95l6.2-3.58a1.83,1.83,0,0,1,1.64-.07l5.26,3c.42.25.37.67-.12.95l-6.2,3.59A1.82,1.82,0,0,1,419.29,283.85Z"/><path class="cls-2" d="M360.36,249.83,352,245c-.43-.25-.37-.67.11-.95l6.21-3.59a1.8,1.8,0,0,1,1.64-.06l8.41,4.85c.42.24.37.67-.12,1l-6.2,3.58A1.85,1.85,0,0,1,360.36,249.83Z"/><path class="cls-2" d="M411.47,279.34l-8.4-4.85c-.42-.25-.37-.67.12-.95l6.2-3.58a1.79,1.79,0,0,1,1.65-.07l8.4,4.85c.42.24.37.67-.12.95l-6.2,3.58A1.85,1.85,0,0,1,411.47,279.34Z"/><path class="cls-2" d="M372.07,256.59l-8.41-4.85c-.42-.25-.37-.67.12-1l6.2-3.59a1.82,1.82,0,0,1,1.65-.06L380,252c.43.24.37.67-.11.95l-6.21,3.58A1.83,1.83,0,0,1,372.07,256.59Z"/><path class="cls-2" d="M371.69,247.17l36.54,21.09c.45.27.45.69,0,.95l-6.33,3.65a1.76,1.76,0,0,1-1.64,0l-36.54-21.09Z"/><path class="cls-2" d="M442,292.35l5.86,3.38c.34.2.3.55-.1.78L445.19,298a1.5,1.5,0,0,1-1.35.06L438,294.65c-.35-.2-.3-.55.1-.78l2.53-1.47A1.5,1.5,0,0,1,442,292.35Z"/><path class="cls-2" d="M433.79,287.62l5.85,3.38c.35.2.31.55-.09.78L437,293.25a1.5,1.5,0,0,1-1.35.05l-5.85-3.38c-.35-.2-.31-.54.09-.77l2.54-1.47A1.5,1.5,0,0,1,433.79,287.62Z"/><path class="cls-2" d="M425.68,282.94l5.85,3.38c.34.2.3.55-.1.78l-2.54,1.46a1.48,1.48,0,0,1-1.34.06l-5.86-3.38c-.34-.2-.3-.55.1-.78l2.54-1.47A1.5,1.5,0,0,1,425.68,282.94Z"/><path class="cls-2" d="M438.27,285l5.86,3.38c.34.2.3.54-.1.78l-2.54,1.46a1.5,1.5,0,0,1-1.35.06l-5.85-3.38c-.35-.2-.3-.55.1-.78l2.53-1.47A1.5,1.5,0,0,1,438.27,285Z"/><path class="cls-5" d="M427.52,141.42l-7.77-4.49a2.2,2.2,0,0,1-.94-2.3h0a1.08,1.08,0,0,1,1.66-.79l7.76,4.48a2.22,2.22,0,0,1,.95,2.3h0A1.08,1.08,0,0,1,427.52,141.42Z"/><path class="cls-5" d="M446,152.1l-11.45-6.61a2.22,2.22,0,0,1-.95-2.3h0a1.08,1.08,0,0,1,1.66-.8L446.73,149a2.22,2.22,0,0,1,.95,2.3h0A1.08,1.08,0,0,1,446,152.1Z"/><path class="cls-5" d="M414,177.67l-7.76-4.49a2.21,2.21,0,0,1-1-2.3h0a1.08,1.08,0,0,1,1.66-.79l7.77,4.48a2.22,2.22,0,0,1,.94,2.3h0A1.08,1.08,0,0,1,414,177.67Z"/><path class="cls-5" d="M430.47,187.19,419,180.58a2.24,2.24,0,0,1-.95-2.3h0a1.09,1.09,0,0,1,1.67-.8l11.45,6.61a2.22,2.22,0,0,1,.94,2.3h0A1.08,1.08,0,0,1,430.47,187.19Z"/><path class="cls-5" d="M404.61,135.53l-4.85-2.8a2.23,2.23,0,0,1-.95-2.3h0a1.08,1.08,0,0,1,1.66-.79l4.86,2.8a2.22,2.22,0,0,1,.94,2.3h0A1.07,1.07,0,0,1,404.61,135.53Z"/><path class="cls-5" d="M419.56,151.51,404.74,143a2.23,2.23,0,0,1-.95-2.3h0a1.08,1.08,0,0,1,1.66-.79l14.83,8.56a2.2,2.2,0,0,1,.94,2.3h0A1.08,1.08,0,0,1,419.56,151.51Z"/><path class="cls-5" d="M406.6,158.72l-4.85-2.81a2.21,2.21,0,0,1-.95-2.3h0a1.08,1.08,0,0,1,1.66-.79l4.85,2.8a2.22,2.22,0,0,1,.95,2.3h0A1.08,1.08,0,0,1,406.6,158.72Z"/><path class="cls-5" d="M433,203.32l-13-7.49a2.22,2.22,0,0,1-.95-2.29h0a1.09,1.09,0,0,1,1.67-.79l12.95,7.48a2.22,2.22,0,0,1,.95,2.3h0A1.08,1.08,0,0,1,433,203.32Z"/><path class="cls-5" d="M401.87,170.67l-3.11-1.79a2.22,2.22,0,0,1-.95-2.3h0a1.08,1.08,0,0,1,1.66-.8l3.11,1.8a2.21,2.21,0,0,1,.95,2.3h0A1.08,1.08,0,0,1,401.87,170.67Z"/><path class="cls-5" d="M399.63,184.07l-3.86-2.23a2.21,2.21,0,0,1-.95-2.3h0a1.08,1.08,0,0,1,1.66-.8l3.87,2.24a2.2,2.2,0,0,1,.94,2.3h0A1.08,1.08,0,0,1,399.63,184.07Z"/><path class="cls-5" d="M414.68,192.75l-10.2-5.88a2.24,2.24,0,0,1-1-2.3h0a1.07,1.07,0,0,1,1.66-.79l10.2,5.88a2.22,2.22,0,0,1,.95,2.3h0A1.07,1.07,0,0,1,414.68,192.75Z"/><path class="cls-5" d="M401.6,192.55l-7.33-4.23a2.22,2.22,0,0,1-.95-2.3h0a1.08,1.08,0,0,1,1.66-.8l7.33,4.24a2.21,2.21,0,0,1,.95,2.3h0A1.08,1.08,0,0,1,401.6,192.55Z"/><path class="cls-5" d="M444.09,209.77l-4.71-2.72a2.22,2.22,0,0,1-.95-2.3h0a1.07,1.07,0,0,1,1.66-.79l4.71,2.71a2.22,2.22,0,0,1,.95,2.3h0A1.08,1.08,0,0,1,444.09,209.77Z"/><path class="cls-5" d="M424.65,169.13l-13-7.48a2.21,2.21,0,0,1-.95-2.3h0a1.08,1.08,0,0,1,1.66-.79l13,7.48a2.24,2.24,0,0,1,.95,2.3h0A1.08,1.08,0,0,1,424.65,169.13Z"/><path class="cls-5" d="M425.83,162.47l-22.59-13a2.2,2.2,0,0,1-.94-2.3h0a1.08,1.08,0,0,1,1.66-.79l22.58,13a2.22,2.22,0,0,1,.95,2.3h0A1.08,1.08,0,0,1,425.83,162.47Z"/><path class="cls-5" d="M413.21,169.88l-13-7.49a2.2,2.2,0,0,1-.94-2.3h0a1.08,1.08,0,0,1,1.66-.79l12.95,7.48a2.22,2.22,0,0,1,.95,2.3h0A1.08,1.08,0,0,1,413.21,169.88Z"/><path class="cls-5" d="M434.47,174.81l-4.7-2.72a2.21,2.21,0,0,1-.95-2.3h0a1.08,1.08,0,0,1,1.66-.79l4.71,2.72a2.2,2.2,0,0,1,.94,2.29h0A1.08,1.08,0,0,1,434.47,174.81Z"/><path class="cls-5" d="M480.94,172.26l-27.87-16.09a2.21,2.21,0,0,1-.95-2.3h0a1.08,1.08,0,0,1,1.66-.8l27.88,16.1a2.23,2.23,0,0,1,.95,2.3h0A1.09,1.09,0,0,1,480.94,172.26Z"/><path class="cls-5" d="M412.84,184.35l-15.58-9a2.24,2.24,0,0,1-.95-2.3h0a1.09,1.09,0,0,1,1.67-.8l15.57,9a2.2,2.2,0,0,1,.95,2.29h0A1.08,1.08,0,0,1,412.84,184.35Z"/><path class="cls-5" d="M412.71,132.86l-11.45-6.61a2.21,2.21,0,0,1-.95-2.3h0a1.08,1.08,0,0,1,1.66-.79l11.45,6.61a2.22,2.22,0,0,1,.95,2.3h0A1.07,1.07,0,0,1,412.71,132.86Z"/><path class="cls-5" d="M399.56,198.71l-13.26-7.65a2.22,2.22,0,0,1-.95-2.3h0A1.08,1.08,0,0,1,387,188l13.26,7.66a2.22,2.22,0,0,1,1,2.3h0A1.07,1.07,0,0,1,399.56,198.71Z"/><path class="cls-5" d="M489.31,226.67l-7.77-4.49a2.2,2.2,0,0,1-.94-2.3h0a1.08,1.08,0,0,1,1.66-.79l7.76,4.48a2.22,2.22,0,0,1,1,2.3h0A1.08,1.08,0,0,1,489.31,226.67Z"/><path class="cls-5" d="M494.89,200.51,480.07,192a2.21,2.21,0,0,1-.95-2.3h0a1.08,1.08,0,0,1,1.66-.79l14.82,8.56a2.22,2.22,0,0,1,.95,2.3h0A1.08,1.08,0,0,1,494.89,200.51Z"/><path class="cls-5" d="M481.93,207.72l-4.85-2.8a2.22,2.22,0,0,1-.95-2.3h0a1.08,1.08,0,0,1,1.66-.8l4.85,2.8a2.22,2.22,0,0,1,.95,2.3h0A1.08,1.08,0,0,1,481.93,207.72Z"/><path class="cls-5" d="M477.2,219.67l-3.12-1.79a2.22,2.22,0,0,1-.94-2.3h0a1.08,1.08,0,0,1,1.66-.8l3.11,1.8a2.22,2.22,0,0,1,.95,2.3h0A1.08,1.08,0,0,1,477.2,219.67Z"/><path class="cls-5" d="M500,218.13l-13-7.48a2.21,2.21,0,0,1-.95-2.3h0a1.08,1.08,0,0,1,1.66-.79l13,7.48a2.22,2.22,0,0,1,.94,2.3h0A1.07,1.07,0,0,1,500,218.13Z"/><path class="cls-5" d="M501.15,211.47l-22.58-13a2.22,2.22,0,0,1-.95-2.29h0a1.09,1.09,0,0,1,1.67-.79l22.58,13a2.24,2.24,0,0,1,.95,2.3h0A1.09,1.09,0,0,1,501.15,211.47Z"/><path class="cls-5" d="M488.54,218.88l-13-7.48a2.24,2.24,0,0,1-.95-2.3h0a1.08,1.08,0,0,1,1.66-.8l13,7.48a2.22,2.22,0,0,1,.95,2.3h0A1.08,1.08,0,0,1,488.54,218.88Z"/><path class="cls-5" d="M488.16,233.35l-15.57-9a2.22,2.22,0,0,1-.95-2.3h0a1.08,1.08,0,0,1,1.66-.8l15.58,9a2.23,2.23,0,0,1,.95,2.3h0A1.09,1.09,0,0,1,488.16,233.35Z"/><path class="cls-3" d="M338.69,339.18l-5.37-3.1,19.8-11.43a1,1,0,0,0,0-2L332.9,311a3.77,3.77,0,0,0-3.4,0l-19.8,11.43-5.37-3.1,19.8-11.43a15.65,15.65,0,0,1,14.14,0l20.22,11.68c3.9,2.25,3.9,5.91,0,8.16Z"/><path class="cls-5" d="M347.36,340.55c0-2.88-1.75-6.21-3.9-7.45l-35.87-20.72a2.52,2.52,0,0,0-2.53-.21h0l-42.83,24.89,41.42,31.21,42.2-24.49a2,2,0,0,0,.37-.22h0A3.67,3.67,0,0,0,347.36,340.55Z"/><path class="cls-2" d="M303.65,368.27l42.2-24.49a2,2,0,0,0,.37-.22h0a3.68,3.68,0,0,0,1.14-3,9.51,9.51,0,0,0-1.05-4.14l-48.1,27.77Z"/><path class="cls-7" d="M301,368.16l-35.87-20.71c-2.16-1.25-3.9-4.58-3.9-7.45h0c0-2.87,1.74-4.19,3.9-2.95L301,357.76c2.15,1.24,3.9,4.58,3.9,7.45h0C304.85,368.08,303.1,369.4,301,368.16Z"/><path class="cls-2" d="M296.18,361.81l-5.52-3.18a2.38,2.38,0,0,1-1-1.9h0c0-.74.44-1.07,1-.76l5.52,3.19a2.39,2.39,0,0,1,1,1.9h0C297.18,361.79,296.73,362.13,296.18,361.81Z"/><polygon class="cls-3" points="253.68 311.49 262.37 316.42 271.24 311.22 271.21 308.95 271.14 309 271.13 308.84 275.07 308.81 275.05 306.58 278.92 306.56 278.9 304.33 282.76 304.3 282.74 302.07 286.61 302.05 286.58 299.82 290.72 299.79 292 299.04 293.42 293.19 293.4 290.92 292.71 293.09 286.45 292.25 253.68 311.49"/><polygon class="cls-5" points="262.35 314.16 271.21 308.95 271.11 306.58 275.05 306.55 274.95 304.32 278.89 304.29 278.8 302.07 282.74 302.04 282.64 299.81 286.58 299.78 286.48 297.56 290.69 297.52 291.98 296.77 293.4 290.92 286.43 289.99 253.66 309.22 262.35 314.16"/><path class="cls-3" d="M268.25,310.69a12.23,12.23,0,0,0-4-3.47,20.72,20.72,0,0,0-4.16-1.76l-6.4,3.76,8.69,4.94Z"/><polygon class="cls-7" points="293.16 291.9 293.4 290.92 292.23 290.77 264.54 307.01 265.99 307.84 293.16 291.9"/><polygon class="cls-8" points="232.68 318.62 232.58 315.41 233.61 317.58 232.68 318.62"/><path class="cls-3" d="M238,325.86c7.1,4,18.56,4,25.61-.18,3.53-2.07,5.28-4.77,5.25-7.45h0l-.1-3.41-.58.65a11.08,11.08,0,0,0-4.68-4.57c-7.1-4-18.56-4-25.61.18S230.93,321.83,238,325.86Zm10.26-6c1.84,1.05,1.86,2.78,0,3.85a7.34,7.34,0,0,1-6.66.05c-1.85-1.05-1.87-2.77,0-3.85A7.39,7.39,0,0,1,248.29,319.84Z"/><path class="cls-9" d="M237.93,322.65c7.1,4,18.57,4,25.61-.18s7-10.75-.1-14.79-18.57-3.95-25.61.18S230.83,318.61,237.93,322.65Zm10.26-6c1.85,1.05,1.86,2.77,0,3.85a7.39,7.39,0,0,1-6.67,0c-1.85-1-1.86-2.77,0-3.84A7.36,7.36,0,0,1,248.19,316.63Z"/><path class="cls-5" d="M237.93,322.65a21.83,21.83,0,0,0,5.35,2.09,27.8,27.8,0,0,0,4.24.73c5.65.55,11.68-.45,16-3,7-4.13,7-10.75-.1-14.79s-18.57-3.95-25.61.18S230.83,318.61,237.93,322.65Zm10.26-6c1.85,1.05,1.86,2.77,0,3.85a7.39,7.39,0,0,1-6.67,0c-1.85-1-1.86-2.77,0-3.84A7.36,7.36,0,0,1,248.19,316.63Z"/><path class="cls-3" d="M234.58,315.32c.34-2.06,1.87-4.07,4.59-5.67,6.27-3.68,16.47-3.75,22.79-.16,3.14,1.78,4.72,4.14,4.76,6.5.45-2.68-1.11-5.45-4.69-7.48-6.32-3.59-16.52-3.52-22.78.16C236.09,310.52,234.54,312.93,234.58,315.32Z"/><path class="cls-3" d="M230.31,344.58a7.15,7.15,0,0,1-3.56-.91c-2.54-1.45-4-4.35-4-8.17-.05-7,4.8-15.53,10.82-19.06,3.3-1.94,6.52-2.21,9.06-.76a7.16,7.16,0,0,1,2.64,2.63h0a11.08,11.08,0,0,1,1.35,5.54c.05,7-4.81,15.53-10.83,19.06A11,11,0,0,1,230.31,344.58Zm8.78-27.25a8.42,8.42,0,0,0-4.2,1.32c-5.32,3.12-9.61,10.67-9.56,16.83,0,2.87,1,5,2.69,6s4,.71,6.5-.74c5.31-3.12,9.6-10.67,9.56-16.83a8.63,8.63,0,0,0-1-4.26,4.67,4.67,0,0,0-1.69-1.7A4.57,4.57,0,0,0,239.09,317.33Z"/><path class="cls-3" d="M240.25,326.94a26.65,26.65,0,0,0,5.41,1.49c2.39.3.06-3.13.06-3.13a27.52,27.52,0,0,1-6.2-1.85C236.77,322.16,240.25,326.94,240.25,326.94Z"/><path class="cls-5" d="M242.44,323l5.05,1.24.73-3.75a7.39,7.39,0,0,1-6.67,0Z"/><path class="cls-5" d="M237.93,322.65a21.83,21.83,0,0,0,5.35,2.09,27.8,27.8,0,0,0,4.24.73c5.65.55,11.68-.45,16-3L243,322Z"/><path class="cls-2" d="M331.39,341.3l2.19-1.26c.13-.08.12-.22,0-.31l-2.12-1.22a.56.56,0,0,0-.52,0l-2.19,1.27c-.14.07-.12.21,0,.3l2.12,1.22A.59.59,0,0,0,331.39,341.3Z"/><path class="cls-6" d="M324.06,345.52l2.19-1.27c.14-.08.12-.21,0-.3l-2.11-1.23a.62.62,0,0,0-.53,0L321.38,344c-.14.08-.12.21,0,.3l2.11,1.22A.62.62,0,0,0,324.06,345.52Z"/><path class="cls-7" d="M316.73,349.73l2.2-1.27c.13-.07.11-.21,0-.3l-2.12-1.22a.57.57,0,0,0-.52,0l-2.2,1.26c-.13.08-.12.22,0,.31l2.12,1.22A.56.56,0,0,0,316.73,349.73Z"/><path class="cls-7" d="M309.41,353.94l2.19-1.26c.13-.08.12-.22,0-.31l-2.12-1.22a.56.56,0,0,0-.52,0l-2.19,1.26c-.14.08-.12.22,0,.31l2.12,1.22A.59.59,0,0,0,309.41,353.94Z"/><text class="cls-10" transform="translate(44.84 203.51)">No tienes los permisos suficientes <tspan x="0" y="20.87">para ingresar a esta página</tspan></text><text class="cls-11" transform="translate(46.38 177.74)">A<tspan class="cls-12" x="17.65" y="0">L</tspan><tspan x="28.38" y="0">TO AHÍ</tspan></text></svg>